<svg xmlns="http://www.w3.org/2000/svg" viewBox="0 0 80 1080">
  <defs>
    <style>
      .cls-1 {
        fill: #3d7f71;
      }

      .cls-2 {
        fill: #275a4f;
      }

      .cls-3 {
        fill: #fff;
      }
    </style>
  </defs>
  <title>MWCIot</title>
  <g id="Layer_1" data-name="Layer 1">
    <g>
      <rect class="cls-1" width="80" height="1080"/>
      <rect class="cls-2" y="40" width="80" height="80"/>
      <path class="cls-3" d="M55.5,64.5v7h-11v-7h11m-20,0v15h-11v-15h11m20,16v15h-11v-15h11m-20,8v7h-11v-7h11M58,62H42V74H58V62ZM38,62H22V82H38V62ZM58,78H42V98H58V78ZM38,86H22V98H38V86Z"/>
      <g>
        <path class="cls-3" d="M26.34,989.34l2.84,2.84A13.84,13.84,0,0,1,40,987a14,14,0,1,1-10.84,22.84l-2.82,2.82a18,18,0,1,0,0-23.32Z"/>
        <polygon class="cls-3" points="16 1001 24 1009 24 1003 41.17 1003 41.17 999 24 999 24 993 16 1001"/>
      </g>
      <path class="cls-3" d="M59.69,181H20.31l7.88-23.62h10.5V152a6.39,6.39,0,0,1-2.11-.84,6.83,6.83,0,0,1-1.67-1.44,6.7,6.7,0,0,1-1.08-1.92,6.48,6.48,0,0,1-.39-2.24A6.37,6.37,0,0,1,34,143a6.63,6.63,0,0,1,1.4-2.08,6.77,6.77,0,0,1,2.1-1.42A6.29,6.29,0,0,1,40,139a6.21,6.21,0,0,1,2.54.52,6.57,6.57,0,0,1,2.08,1.42A6.68,6.68,0,0,1,46,143a6.21,6.21,0,0,1,.52,2.54,6.48,6.48,0,0,1-.39,2.24,6.7,6.7,0,0,1-1.08,1.92,6.83,6.83,0,0,1-1.67,1.44,6.39,6.39,0,0,1-2.11.84v5.38h10.5ZM24,178.38H56L49.93,160H41.31v9.84a.41.41,0,0,1-.15.32,1.12,1.12,0,0,1-.37.21,3.34,3.34,0,0,1-.43.1l-.36,0-.36,0a3.34,3.34,0,0,1-.43-.1,1.12,1.12,0,0,1-.37-.21.41.41,0,0,1-.15-.32V160H30.07Zm12.1-32.82a4,4,0,0,0,.31,1.54,4,4,0,0,0,.84,1.25,4,4,0,0,0,5.58,0,4,4,0,0,0,.84-1.25,4,4,0,0,0,0-3.08,4.29,4.29,0,0,0-.84-1.25,4.16,4.16,0,0,0-1.25-.84,4,4,0,0,0-3.08,0,4.16,4.16,0,0,0-1.25.84,4.29,4.29,0,0,0-.84,1.25A4,4,0,0,0,36.06,145.56Z"/>
      <path class="cls-3" d="M40,219a20.57,20.57,0,0,1,5.57.75,21.91,21.91,0,0,1,5,2.13,21,21,0,0,1,7.53,7.53,21.91,21.91,0,0,1,2.13,5,21.06,21.06,0,0,1,0,11.14,21.91,21.91,0,0,1-2.13,5,21,21,0,0,1-7.53,7.53,21.91,21.91,0,0,1-5,2.13,21.06,21.06,0,0,1-11.14,0,21.91,21.91,0,0,1-5-2.13,21,21,0,0,1-7.53-7.53,21.91,21.91,0,0,1-2.13-5,21.06,21.06,0,0,1,0-11.14,21.91,21.91,0,0,1,2.13-5,21,21,0,0,1,7.53-7.53,21.91,21.91,0,0,1,5-2.13A20.62,20.62,0,0,1,40,219Zm0,39.2a17.5,17.5,0,0,0,4.83-.66,18.63,18.63,0,0,0,4.35-1.83,18.46,18.46,0,0,0,6.53-6.53,18.63,18.63,0,0,0,1.83-4.35,18,18,0,0,0,0-9.66,18.63,18.63,0,0,0-1.83-4.35,18.46,18.46,0,0,0-6.53-6.53,18.63,18.63,0,0,0-4.35-1.83,18,18,0,0,0-9.66,0,18.63,18.63,0,0,0-4.35,1.83,18.46,18.46,0,0,0-6.53,6.53,18.63,18.63,0,0,0-1.83,4.35,18,18,0,0,0,0,9.66,18.63,18.63,0,0,0,1.83,4.35,18.46,18.46,0,0,0,6.53,6.53,18.63,18.63,0,0,0,4.35,1.83A17.5,17.5,0,0,0,40,258.2ZM24.6,240a15.39,15.39,0,0,1,.71-4.66,15.13,15.13,0,0,1,2-4.11,15.38,15.38,0,0,1,3.17-3.33,15.19,15.19,0,0,1,4.12-2.29l1,2.62a12.36,12.36,0,0,0-3.35,1.87,13.13,13.13,0,0,0-2.58,2.74A12.69,12.69,0,0,0,28,236.2a12.54,12.54,0,0,0,3.11,12.7l-2,2a15.07,15.07,0,0,1-3.35-5A15.4,15.4,0,0,1,24.6,240Zm16.76-4a4.43,4.43,0,0,1,1.16.61,4.31,4.31,0,0,1,.89.92,4.38,4.38,0,0,1,.58,1.14A4,4,0,0,1,44.2,240a4.11,4.11,0,0,1-.33,1.64,4.15,4.15,0,0,1-2.23,2.23,4.24,4.24,0,0,1-3.28,0,4.15,4.15,0,0,1-2.23-2.23A4.11,4.11,0,0,1,35.8,240a4,4,0,0,1,.21-1.29,4.38,4.38,0,0,1,.58-1.14,4.31,4.31,0,0,1,.89-.92,4.43,4.43,0,0,1,1.16-.61h0V224.67h2.8V236ZM40,241.4a1.44,1.44,0,1,0-1-.42A1.32,1.32,0,0,0,40,241.4Zm5.38-15.79a15.19,15.19,0,0,1,4.12,2.29,14.82,14.82,0,0,1,3.15,3.33,15.55,15.55,0,0,1,1.58,14.67,15,15,0,0,1-3.34,5l-2-2A12.55,12.55,0,0,0,52,236.2a12.69,12.69,0,0,0-1.66-3.36,13.13,13.13,0,0,0-2.58-2.74,12.36,12.36,0,0,0-3.35-1.87Z"/>
      <path class="cls-3" d="M53.12,302.94H61v36.75H19V302.94h7.88v-2.63H29.5v2.63h21v-2.63h2.62Zm-26.24,2.62H21.62v5.25H58.38v-5.25H53.12v2.63H50.5v-2.63h-21v2.63H26.88Zm-5.26,31.5H58.38V313.44H21.62Zm5.26-13.12v-2.63H29.5v2.63Zm0,5.25v-2.63H29.5v2.63Zm0,5.25v-2.63H29.5v2.63Zm7.87-15.75v-2.63h2.63v2.63Zm0,5.25v-2.63h2.63v2.63Zm0,5.25v-2.63h2.63v2.63Zm0,5.25v-2.63h2.63v2.63Zm7.87-15.75v-2.63h2.63v2.63Zm0,5.25v-2.63h2.63v2.63Zm0,5.25v-2.63h2.63v2.63Zm0,5.25v-2.63h2.63v2.63Zm7.88-15.75v-2.63h2.62v2.63Zm0,5.25v-2.63h2.62v2.63Zm0,5.25v-2.63h2.62v2.63Z"/>
      <path class="cls-3" d="M55.66,479.26c0,.12,0,.24,0,.37s0,.25,0,.37,0,.25,0,.37,0,.25,0,.37L61,484.06,57.72,492l-6.13-1.4c-.33.36-.67.7-1,1l1.4,6.13L44.06,501l-3.32-5.34H39.26L35.94,501,28,497.72l1.4-6.13c-.36-.33-.7-.67-1-1L22.28,492,19,484.06l5.34-3.32c0-.12,0-.24,0-.37s0-.25,0-.37,0-.25,0-.37,0-.25,0-.37L19,475.94l3.28-7.9,6.13,1.4c.33-.36.67-.7,1-1L28,462.28l7.9-3.28,3.32,5.34h1.48L44.06,459l7.9,3.28-1.4,6.13c.36.33.7.67,1,1l6.13-1.4,3.28,7.9Zm-2.42,2.68.09-1c0-.32,0-.65,0-1s0-.64,0-1l-.09-1,4.87-3-1.77-4.29L50.75,472a18.79,18.79,0,0,0-1.31-1.45c-.45-.44-.93-.88-1.46-1.32l1.3-5.59L45,461.89l-3.05,4.87-1-.09c-.33,0-.65,0-1,0s-.66,0-1,0l-1,.09-3-4.87-4.29,1.77,1.3,5.59a18.79,18.79,0,0,0-1.45,1.31c-.44.45-.88.93-1.32,1.46l-5.59-1.3L21.89,475l4.87,3.05-.09,1c0,.32,0,.65,0,1s0,.64,0,1l.09,1-4.87,3,1.77,4.29,5.59-1.3a18.79,18.79,0,0,0,1.31,1.45c.45.44.93.88,1.46,1.32l-1.3,5.59L35,498.11l3.05-4.87,1,.09c.33,0,.65,0,1,0s.66,0,1,0l1-.09,3,4.87,4.29-1.77L48,490.75a18.79,18.79,0,0,0,1.45-1.31c.44-.45.88-.93,1.32-1.46l5.59,1.3L58.11,485ZM40,472.24a7.65,7.65,0,0,1,3,.61A7.73,7.73,0,0,1,47.15,477a7.78,7.78,0,0,1,0,6A7.73,7.73,0,0,1,43,487.15a7.78,7.78,0,0,1-6,0A7.73,7.73,0,0,1,32.85,483a7.78,7.78,0,0,1,0-6A7.73,7.73,0,0,1,37,472.85,7.65,7.65,0,0,1,40,472.24Zm0,13.21a5.19,5.19,0,0,0,2.12-.43,5.33,5.33,0,0,0,2.9-2.9,5.44,5.44,0,0,0,0-4.24,5.33,5.33,0,0,0-2.9-2.9,5.44,5.44,0,0,0-4.24,0,5.33,5.33,0,0,0-2.9,2.9,5.44,5.44,0,0,0,0,4.24,5.33,5.33,0,0,0,2.9,2.9A5.19,5.19,0,0,0,40,485.45Z"/>
      <path class="cls-3" d="M40,379a20.87,20.87,0,1,1-5.59.74A21.06,21.06,0,0,1,40,379Zm0,39.2a17.58,17.58,0,0,0,4.82-.66,18.52,18.52,0,0,0,4.36-1.83,18.46,18.46,0,0,0,6.53-6.53,18.63,18.63,0,0,0,1.83-4.35,18,18,0,0,0,0-9.65,18.52,18.52,0,0,0-1.83-4.36,18.46,18.46,0,0,0-6.53-6.53,18.52,18.52,0,0,0-4.36-1.83,18,18,0,0,0-9.65,0,18.63,18.63,0,0,0-4.35,1.83,18.46,18.46,0,0,0-6.53,6.53,18.52,18.52,0,0,0-1.83,4.36,17.93,17.93,0,0,0,0,9.64,18.52,18.52,0,0,0,1.83,4.36,18.46,18.46,0,0,0,6.53,6.53,18.63,18.63,0,0,0,4.35,1.83A17.5,17.5,0,0,0,40,418.2Zm-1.4-28h2.8v14H38.6Zm0,16.8h2.8v2.8H38.6Z"/>
    </g>
  </g>
</svg>
