<svg xmlns="http://www.w3.org/2000/svg" viewBox="0 0 28 26.25">
  <defs>
    <style>
      .cal-1 {
        fill: #22b573;
      }
    </style>
  </defs>
  <g id="Overlay">
    <path class="cal-1" d="M22.75,1.75H28v24.5H0V1.75H5.25V0H7V1.75H21V0h1.75ZM5.25,3.5H1.75V7h24.5V3.5h-3.5V5.25H21V3.5H7V5.25H5.25Zm-3.5,21h24.5V8.75H1.75Zm3.5-8.75V14H7v1.75Zm0,3.5V17.5H7v1.75Zm0,3.5V21H7v1.75Zm5.25-10.5V10.5h1.75v1.75Zm0,3.5V14h1.75v1.75Zm0,3.5V17.5h1.75v1.75Zm0,3.5V21h1.75v1.75Zm5.25-10.5V10.5H17.5v1.75Zm0,3.5V14H17.5v1.75Zm0,3.5V17.5H17.5v1.75Zm0,3.5V21H17.5v1.75ZM21,12.25V10.5h1.75v1.75Zm0,3.5V14h1.75v1.75Zm0,3.5V17.5h1.75v1.75Z"/>
  </g>
</svg>
