<svg xmlns="http://www.w3.org/2000/svg" viewBox="0 0 235 120">
  <defs>
    <style>
      .brand-1 {
        fill: #fff;
      }

      .brand-2 {
        fill: #22b573;
      }
    </style>
  </defs>
  <g id="FG">
    <g>
      <rect class="brand-1" width="235" height="120"/>
      <g>
        <rect class="brand-2" x="11.44" y="11.35" width="212.12" height="71.01"/>
        <g>
          <g>
            <path d="M75.13,105.18H69.85l-.53,1.32h.53a1.65,1.65,0,0,1,1.12.3,1.08,1.08,0,0,1,0,1.55,1.65,1.65,0,0,1-1.12.3H66.93a1.69,1.69,0,0,1-1.12-.3,1.08,1.08,0,0,1,0-1.57A1.66,1.66,0,0,1,67,106.5l3.41-8.43H69a1.64,1.64,0,0,1-1.11-.3,1,1,0,0,1-.34-.78,1,1,0,0,1,.34-.78,1.64,1.64,0,0,1,1.11-.3h4.7L78,106.5a2,2,0,0,1,1,.16,1.08,1.08,0,0,1,.49.92,1,1,0,0,1-.33.77,1.64,1.64,0,0,1-1.11.3H75.12a1.65,1.65,0,0,1-1.12-.3,1,1,0,0,1-.33-.78,1,1,0,0,1,.33-.77,1.65,1.65,0,0,1,1.12-.3h.53Zm-.9-2.15-1.75-4.27L70.72,103Z"/>
            <path d="M86.4,104.28v2.22h2.19a1.65,1.65,0,0,1,1.12.3,1.05,1.05,0,0,1,0,1.55,1.65,1.65,0,0,1-1.12.3h-4.7a1.64,1.64,0,0,1-1.11-.3,1,1,0,0,1-.34-.78,1,1,0,0,1,.34-.77,1.67,1.67,0,0,1,1.11-.3h.34V98.07h-.34a1.64,1.64,0,0,1-1.11-.3,1,1,0,0,1-.34-.78,1,1,0,0,1,.34-.78,1.64,1.64,0,0,1,1.11-.3h5a4.91,4.91,0,0,1,3.49,1.19,3.79,3.79,0,0,1,1.29,2.9,3.85,3.85,0,0,1-.44,1.79A4,4,0,0,1,92.14,103a6.29,6.29,0,0,1-1.57.93,5.88,5.88,0,0,1-2.11.31Zm0-2.15h2a3.62,3.62,0,0,0,2.25-.64A1.86,1.86,0,0,0,91.5,100a1.7,1.7,0,0,0-.68-1.32,2.88,2.88,0,0,0-1.92-.57H86.4Z"/>
            <path d="M101.59,104.28v2.22h2.19a1.69,1.69,0,0,1,1.12.3,1.08,1.08,0,0,1,0,1.55,1.69,1.69,0,0,1-1.12.3h-4.7a1.65,1.65,0,0,1-1.12-.3,1,1,0,0,1-.33-.78,1,1,0,0,1,.33-.77,1.69,1.69,0,0,1,1.12-.3h.34V98.07h-.34a1.65,1.65,0,0,1-1.12-.3,1,1,0,0,1-.33-.78,1,1,0,0,1,.33-.78,1.65,1.65,0,0,1,1.12-.3h5a4.89,4.89,0,0,1,3.49,1.19,3.79,3.79,0,0,1,1.29,2.9,3.84,3.84,0,0,1-.43,1.79,4,4,0,0,1-1.1,1.24,6,6,0,0,1-1.57.93,5.84,5.84,0,0,1-2.11.31Zm0-2.15h2a3.66,3.66,0,0,0,2.25-.64,1.88,1.88,0,0,0,.83-1.53,1.69,1.69,0,0,0-.67-1.32,2.89,2.89,0,0,0-1.92-.57h-2.5Z"/>
            <path d="M120.68,105.18H115.4l-.53,1.32h.53a1.65,1.65,0,0,1,1.12.3,1.08,1.08,0,0,1,0,1.55,1.65,1.65,0,0,1-1.12.3h-2.92a1.69,1.69,0,0,1-1.12-.3,1.08,1.08,0,0,1,0-1.57,1.66,1.66,0,0,1,1.15-.28l3.41-8.43h-1.42a1.64,1.64,0,0,1-1.11-.3,1,1,0,0,1-.34-.78,1,1,0,0,1,.34-.78,1.64,1.64,0,0,1,1.11-.3h4.7l4.32,10.58a2,2,0,0,1,1,.16,1.08,1.08,0,0,1,.49.92,1,1,0,0,1-.33.77,1.64,1.64,0,0,1-1.11.3h-2.92a1.65,1.65,0,0,1-1.12-.3,1,1,0,0,1-.33-.78,1,1,0,0,1,.33-.77,1.65,1.65,0,0,1,1.12-.3h.53Zm-.9-2.15L118,98.76,116.27,103Z"/>
            <path d="M131,103.79v2.71h.78a1.67,1.67,0,0,1,1.12.3,1.08,1.08,0,0,1,0,1.55,1.67,1.67,0,0,1-1.12.3h-3.29a1.67,1.67,0,0,1-1.12-.3,1,1,0,0,1-.33-.78,1,1,0,0,1,.34-.77,1.64,1.64,0,0,1,1.11-.3h.34V98.07h-.34a1.67,1.67,0,0,1-1.12-.3A1,1,0,0,1,127,97a1,1,0,0,1,.33-.78,1.67,1.67,0,0,1,1.12-.3h4.91a5.12,5.12,0,0,1,3.56,1.13,3.51,3.51,0,0,1,1.27,2.74,3.1,3.1,0,0,1-.59,1.84,5.18,5.18,0,0,1-1.79,1.46,13,13,0,0,1,1.47,1.54c.32.4.76,1,1.31,1.87a2.35,2.35,0,0,1,1.09.16,1.06,1.06,0,0,1,.48.92,1,1,0,0,1-.33.77,1.64,1.64,0,0,1-1.11.3h-1.24c-1.76-2.7-3.21-4.32-4.37-4.86Zm0-2.16h1.69a4.72,4.72,0,0,0,1.69-.28,3.25,3.25,0,0,0,1.34-.8,1.37,1.37,0,0,0,.34-.83,1.46,1.46,0,0,0-.66-1.13,3,3,0,0,0-1.91-.52H131Z"/>
            <path d="M146.16,103.33v3.17h5.54v-1.17a1.64,1.64,0,0,1,.3-1.11,1,1,0,0,1,.79-.33,1,1,0,0,1,.78.33,1.64,1.64,0,0,1,.3,1.11v3.32H143.65a1.64,1.64,0,0,1-1.11-.3,1,1,0,0,1-.34-.78,1,1,0,0,1,.34-.77,1.67,1.67,0,0,1,1.11-.3H144V98.07h-.34a1.64,1.64,0,0,1-1.11-.3,1,1,0,0,1-.34-.78,1,1,0,0,1,.34-.78,1.64,1.64,0,0,1,1.11-.3h9.74v3.27a1.61,1.61,0,0,1-.29,1.1,1,1,0,0,1-.79.33,1,1,0,0,1-.78-.32,1.58,1.58,0,0,1-.31-1.11V98.07h-5.06v3.11h1.91a2.25,2.25,0,0,1,.16-1.08,1,1,0,0,1,.93-.52,1,1,0,0,1,.78.33,1.64,1.64,0,0,1,.3,1.11v2.48a1.85,1.85,0,0,1-.17,1,1.1,1.1,0,0,1-1.84,0,2.32,2.32,0,0,1-.16-1.1Z"/>
            <path d="M162.67,98.07v8.43h4.68v-2a1.64,1.64,0,0,1,.3-1.11,1,1,0,0,1,.79-.33,1,1,0,0,1,.78.33,1.64,1.64,0,0,1,.3,1.11v4.19H159.24a1.67,1.67,0,0,1-1.12-.3,1,1,0,0,1-.33-.78,1,1,0,0,1,.33-.77,1.67,1.67,0,0,1,1.12-.3h1.26V98.07h-1.26a1.67,1.67,0,0,1-1.12-.3,1,1,0,0,1-.33-.78,1,1,0,0,1,.33-.78,1.67,1.67,0,0,1,1.12-.3h4.7a1.69,1.69,0,0,1,1.12.29,1.09,1.09,0,0,1,0,1.56,1.69,1.69,0,0,1-1.12.3Z"/>
          </g>
          <g>
            <path d="M43.59,103.62a1.67,1.67,0,0,1-1.12-.3,1.09,1.09,0,0,1,0-1.56,1.67,1.67,0,0,1,1.12-.3H57.67a1.67,1.67,0,0,1,1.12.3,1.09,1.09,0,0,1,0,1.56,1.67,1.67,0,0,1-1.12.3Z"/>
            <path d="M177.33,103.62a1.67,1.67,0,0,1-1.12-.3,1.09,1.09,0,0,1,0-1.56,1.67,1.67,0,0,1,1.12-.3h14.08a1.67,1.67,0,0,1,1.12.3,1.09,1.09,0,0,1,0,1.56,1.67,1.67,0,0,1-1.12.3Z"/>
          </g>
        </g>
        <g>
          <path class="brand-1" d="M61,27.91l-1.52,9.45a9.25,9.25,0,0,0-3.54-3.17,10.31,10.31,0,0,0-4.79-1.13,12.05,12.05,0,0,0-6.76,2.07,16,16,0,0,0-5,5.18A18.85,18.85,0,0,0,36.92,47a14.6,14.6,0,0,0,.38,6.55,10.17,10.17,0,0,0,3.38,5.07,9.22,9.22,0,0,0,6,2,12.16,12.16,0,0,0,5.08-1.18,17.26,17.26,0,0,0,4.66-3.11l-1.52,9.39a24.65,24.65,0,0,1-9.63,2.41,16.48,16.48,0,0,1-9.73-2.92,16.24,16.24,0,0,1-6-7.73,19.66,19.66,0,0,1-.9-10.33,25.78,25.78,0,0,1,2.76-8.24,27.32,27.32,0,0,1,5.2-6.9,24.22,24.22,0,0,1,7.16-4.72,21.13,21.13,0,0,1,8.47-1.77A16.88,16.88,0,0,1,61,27.91Z"/>
          <path class="brand-1" d="M64.15,43.82a15.76,15.76,0,0,1,10.71-3.94q6.19,0,9.44,3.94t2.28,10.12A16.22,16.22,0,0,1,81.08,64,15.82,15.82,0,0,1,70.37,68q-6.2,0-9.43-3.92c-2.17-2.61-2.92-6-2.28-10.09A16.44,16.44,0,0,1,64.15,43.82Zm13.8,5a4.57,4.57,0,0,0-4.17-2.26,6.52,6.52,0,0,0-4.89,2.26,9.44,9.44,0,0,0-2.55,5.15,7.12,7.12,0,0,0,.92,5.1,4.61,4.61,0,0,0,4.17,2.25A6.5,6.5,0,0,0,76.3,59a9.74,9.74,0,0,0,2.59-5.1A7.44,7.44,0,0,0,78,48.79Z"/>
          <path class="brand-1" d="M98.48,40.74l-.38,2.41h.1a9.13,9.13,0,0,1,7.42-3.27q9.19,0,7.46,11.11l-2.6,16.1h-7.57l2.22-14a.87.87,0,0,0,.05-.33c.11-.71.19-1.26.25-1.63s.1-.89.13-1.53a4,4,0,0,0-.13-1.5,7.45,7.45,0,0,0-.52-1.13,1.86,1.86,0,0,0-1-.86,4.7,4.7,0,0,0-1.68-.27,4.47,4.47,0,0,0-2.3.59,5.26,5.26,0,0,0-1.57,1.34,7.72,7.72,0,0,0-1,2,17.2,17.2,0,0,0-.62,2.1c-.11.53-.23,1.23-.38,2.09l-2,13H86.68L90.9,40.74Z"/>
          <path class="brand-1" d="M126.22,47.07l-3.19,20h-7.57l3.19-20h-2.59l1-6.33h2.6l1.4-8.91h7.58l-1.41,8.91h4.66l-1,6.33Z"/>
          <path class="brand-1" d="M135.93,43.82a15.74,15.74,0,0,1,10.71-3.94q6.2,0,9.44,3.94c2.17,2.64,2.92,6,2.28,10.12A16.27,16.27,0,0,1,152.86,64,15.82,15.82,0,0,1,142.15,68Q136,68,132.72,64t-2.28-10.09A16.44,16.44,0,0,1,135.93,43.82Zm13.8,5a4.57,4.57,0,0,0-4.17-2.26,6.52,6.52,0,0,0-4.89,2.26,9.44,9.44,0,0,0-2.55,5.15A7.12,7.12,0,0,0,139,59a4.61,4.61,0,0,0,4.17,2.25A6.5,6.5,0,0,0,148.08,59a9.74,9.74,0,0,0,2.59-5.1A7.44,7.44,0,0,0,149.73,48.79Z"/>
          <path class="brand-1" d="M178.15,42.62,174.21,47a4.86,4.86,0,0,0-3.68-1.82,3,3,0,0,0-1.84.64,2.49,2.49,0,0,0-1,1.61,1.55,1.55,0,0,0,.11,1,1.92,1.92,0,0,0,.78.8,9.88,9.88,0,0,0,1.08.59c.35.16.83.37,1.47.62a14.71,14.71,0,0,1,1.43.64,8.48,8.48,0,0,1,3.57,2.77,6.46,6.46,0,0,1,.7,4.8,10.32,10.32,0,0,1-4.08,6.79A12.56,12.56,0,0,1,165,68,11,11,0,0,1,160,66.8a9.57,9.57,0,0,1-3.71-3.25l4.22-4.46c1.51,2,3.23,3.06,5.14,3.06a3.6,3.6,0,0,0,2.24-.77,3.18,3.18,0,0,0,1.22-2.07,2.61,2.61,0,0,0-.05-1.16,2,2,0,0,0-.76-.93,10.06,10.06,0,0,0-1-.65c-.27-.14-.75-.36-1.44-.64l-1.4-.59A9.19,9.19,0,0,1,161,52.76a5.54,5.54,0,0,1-.73-4.35,9.89,9.89,0,0,1,3.35-6.11A9.49,9.49,0,0,1,170,39.88a15.18,15.18,0,0,1,4.54.7A8,8,0,0,1,178.15,42.62Z"/>
          <path class="brand-1" d="M184,43.82a15.74,15.74,0,0,1,10.71-3.94q6.19,0,9.44,3.94t2.27,10.12A16.26,16.26,0,0,1,200.9,64,15.82,15.82,0,0,1,190.19,68Q184,68,180.75,64t-2.27-10.09A16.44,16.44,0,0,1,184,43.82Zm13.79,5a4.57,4.57,0,0,0-4.16-2.26,6.54,6.54,0,0,0-4.9,2.26,9.49,9.49,0,0,0-2.54,5.15,7,7,0,0,0,.92,5.1,4.58,4.58,0,0,0,4.16,2.25A6.5,6.5,0,0,0,196.11,59a9.76,9.76,0,0,0,2.6-5.1A7.44,7.44,0,0,0,197.76,48.79Z"/>
        </g>
      </g>
    </g>
  </g>
</svg>
