<svg xmlns="http://www.w3.org/2000/svg" viewBox="0 0 30 30">
  <defs>
    <style>
      .back-1 {
        fill: #7f7f7f;
      }
    </style>
  </defs>
  <g id="FG">
    <path class="back-1" d="M15,0a14.54,14.54,0,0,1,4,.54,15.16,15.16,0,0,1,3.58,1.51A15.13,15.13,0,0,1,28,7.44,15.16,15.16,0,0,1,29.46,11a14.94,14.94,0,0,1,0,8A15.16,15.16,0,0,1,28,22.56,15.13,15.13,0,0,1,22.56,28,15.16,15.16,0,0,1,19,29.46a14.94,14.94,0,0,1-8,0A15.16,15.16,0,0,1,7.44,28a15.13,15.13,0,0,1-5.39-5.39A15.16,15.16,0,0,1,.54,19a14.94,14.94,0,0,1,0-8A15.16,15.16,0,0,1,2.05,7.44,15.13,15.13,0,0,1,7.44,2.05,15.16,15.16,0,0,1,11,.54,14.54,14.54,0,0,1,15,0Zm0,27.85a12.48,12.48,0,0,0,3.41-.47,13.47,13.47,0,0,0,3.07-1.29,12.94,12.94,0,0,0,4.61-4.61,13.47,13.47,0,0,0,1.29-3.07,12.61,12.61,0,0,0,0-6.82,13.39,13.39,0,0,0-1.29-3.06,13.22,13.22,0,0,0-4.62-4.62,13.39,13.39,0,0,0-3.06-1.29,12.61,12.61,0,0,0-6.82,0A13.47,13.47,0,0,0,8.52,3.91,12.94,12.94,0,0,0,3.91,8.52a13.47,13.47,0,0,0-1.29,3.07,12.61,12.61,0,0,0,0,6.82,13.47,13.47,0,0,0,1.29,3.07,12.94,12.94,0,0,0,4.61,4.61,13.47,13.47,0,0,0,3.07,1.29A12.48,12.48,0,0,0,15,27.85Zm3.37-19-6.23,6.24,6.23,6.25-1.52,1.52L9.07,15.08l7.78-7.76Z"/>
  </g>
</svg>
