<svg xmlns="http://www.w3.org/2000/svg" viewBox="0 0 45.34 39">
  <defs>
    <style>
      .hat-1 {
        fill: #22b573;
      }
    </style>
  </defs>
  <g id="FG">
    <g>
      <path class="hat-1" d="M27.17,4.5h-3V3.24A.34.34,0,0,0,24.08,3l-2.9,0c.05,0,0,.09,0,.24V4.5h-3V3.24a3.12,3.12,0,0,1,3-3.24h3a3.13,3.13,0,0,1,3,3.24Z"/>
      <path class="hat-1" d="M22.67,31.5c-5.87,0-19.5-.58-19.5-6V18c0-10.23,5.24-15,16.5-15h6c11.26,0,16.5,4.77,16.5,15v7.5C42.17,30.92,28.53,31.5,22.67,31.5ZM19.67,6C10,6,6.17,9.36,6.17,18v7.5c.19.79,4.46,3,16.5,3s16.3-2.21,16.5-3V18c0-8.64-3.79-12-13.5-12Z"/>
      <path class="hat-1" d="M22.67,39c-15.11,0-19.22-1.27-20-1.6a3.7,3.7,0,0,1-2.4-2.35C-1,31.52,2.68,25.78,3.42,24.67a1.5,1.5,0,0,1,2.75.83c.19.79,4.46,3,16.5,3s16.3-2.21,16.5-3a1.49,1.49,0,0,1,1.06-1.43,1.51,1.51,0,0,1,1.69.61c.74,1.11,4.38,6.85,3.17,10.38A3.71,3.71,0,0,1,42.7,37.4C41.88,37.73,37.77,39,22.67,39ZM4.75,28.3c-1.11,2.11-2.07,4.61-1.67,5.77a.77.77,0,0,0,.56.51l.2.08c.08,0,3.38,1.34,18.83,1.34s18.74-1.31,18.88-1.37l.14-.05a.73.73,0,0,0,.56-.51c.41-1.17-.55-3.67-1.67-5.77-3.76,2.83-13.27,3.2-17.91,3.2S8.52,31.13,4.75,28.3Z"/>
      <path class="hat-1" d="M30.17,25.5h-15a1.5,1.5,0,0,1-1.5-1.5V18a1.5,1.5,0,0,1,1.5-1.5h15a1.5,1.5,0,0,1,1.5,1.5v6A1.5,1.5,0,0,1,30.17,25.5Zm-13.5-3h12v-3h-12Z"/>
    </g>
  </g>
</svg>
