<svg xmlns="http://www.w3.org/2000/svg" viewBox="0 0 25.08 25.08">
  <defs>
    <style>
      .cls-1 {
        fill: #fff;
      }
    </style>
  </defs>
  <g id="Overlay">
    <path class="cls-1" d="M18.81,7.84h3.64a10.91,10.91,0,0,0-1.72-2.59,11.27,11.27,0,0,0-2.33-2,10.9,10.9,0,0,0-5.86-1.7A10.84,10.84,0,0,0,7,3.07,11.15,11.15,0,0,0,3.07,7a10.84,10.84,0,0,0-1.5,5.53A10.76,10.76,0,0,0,2,15.45a10.87,10.87,0,0,0,1.11,2.62,11.19,11.19,0,0,0,1.72,2.22,10.88,10.88,0,0,0,7.75,3.22,10.52,10.52,0,0,0,3.54-.59,11.09,11.09,0,0,0,5.52-4.2,10.73,10.73,0,0,0,1.51-3.25l1.51.41a12.09,12.09,0,0,1-1.72,3.73,13.21,13.21,0,0,1-2.77,2.91,12.82,12.82,0,0,1-3.54,1.89,12.25,12.25,0,0,1-4.05.67,12.68,12.68,0,0,1-3.33-.44,12.47,12.47,0,0,1-3-1.27,12.55,12.55,0,0,1-4.5-4.5,13,13,0,0,1-1.26-3,12.58,12.58,0,0,1,0-6.67,12.86,12.86,0,0,1,1.26-3,12.55,12.55,0,0,1,4.5-4.5A13,13,0,0,1,9.2.45a12.58,12.58,0,0,1,6.67,0,13.28,13.28,0,0,1,3.05,1.3,12,12,0,0,1,2.59,2,12.5,12.5,0,0,1,2,2.71V3.14h1.57V9.41H18.81ZM12.54,6.27V13L17,17.48l-1.1,1.1L11,13.66V6.27Z"/>
  </g>
</svg>
