<svg xmlns="http://www.w3.org/2000/svg" viewBox="0 0 45 42">
  <defs>
    <style>
      .nav3-1 {
        fill: #fff;
      }
    </style>
  </defs>
  <g id="FG">
    <path class="nav3-1" d="M41.44,36H45v3H39.94a6.41,6.41,0,0,1-1.75,2.24A3.49,3.49,0,0,1,36,42a6.18,6.18,0,0,1-2.43-.5A6.25,6.25,0,0,1,31.52,40a3.43,3.43,0,0,0-1-.76A2.84,2.84,0,0,0,29.25,39,3,3,0,0,0,27,40a6.25,6.25,0,0,1-2.05,1.47,6.15,6.15,0,0,1-4.86,0A6.25,6.25,0,0,1,18,40,3.36,3.36,0,0,0,17,39.27,2.89,2.89,0,0,0,15.75,39a3,3,0,0,0-2.27,1,6.25,6.25,0,0,1-2.05,1.47A6.18,6.18,0,0,1,9,42a3.49,3.49,0,0,1-2.19-.76A6.41,6.41,0,0,1,5.06,39H0V36H3.56L0,28.85V25.17l6-2V12H9.56l3-6H18V0h9V6h5.44l3,6H39V23.18l6,2v3.68ZM20.23,38a2.85,2.85,0,0,0,.77.63V21.33l-18,6v.82l4.73,9.44a3.79,3.79,0,0,0,.71,1.07A.94.94,0,0,0,9,39a2.89,2.89,0,0,0,1.22-.27,3.36,3.36,0,0,0,1-.76,6.25,6.25,0,0,1,2.05-1.47,6.15,6.15,0,0,1,4.86,0A6.25,6.25,0,0,1,20.23,38ZM9,22.17l13.5-4.5L36,22.17V15H9ZM12.94,12H32.06l-1.5-3H14.44ZM21,6h3V3H21ZM37.29,37.57,42,28.15v-.82l-18-6V38.6a2.85,2.85,0,0,0,.77-.63,6.25,6.25,0,0,1,2.05-1.47,6.15,6.15,0,0,1,4.86,0,6.25,6.25,0,0,1,2,1.47A3,3,0,0,0,36,39a.94.94,0,0,0,.56-.34,3.79,3.79,0,0,0,.71-1.07Z"/>
  </g>
</svg>
