<svg xmlns="http://www.w3.org/2000/svg" viewBox="0 0 48 42">
  <defs>
    <style>
      .nav2-1 {
        fill: #fff;
      }
    </style>
  </defs>
  <g id="FG">
    <path class="nav2-1" d="M37.5,33a4.53,4.53,0,0,1,1.76.35,4.46,4.46,0,0,1,2.39,2.39,4.6,4.6,0,0,1,0,3.52,4.46,4.46,0,0,1-2.39,2.39,4.6,4.6,0,0,1-3.52,0,4.46,4.46,0,0,1-2.39-2.39A4.53,4.53,0,0,1,33,37.5a4.83,4.83,0,0,1,.26-1.5H20.74A4.83,4.83,0,0,1,21,37.5a4.53,4.53,0,0,1-.35,1.76,4.46,4.46,0,0,1-2.39,2.39,4.6,4.6,0,0,1-3.52,0,4.46,4.46,0,0,1-2.39-2.39A4.53,4.53,0,0,1,12,37.5a4.5,4.5,0,0,1,2.55-4L4.43,3H0V0H6.59l2,6H48L41,27H15.59l2,6ZM9.59,9l5,15H38.84l5-15ZM18,37.5a1.49,1.49,0,0,0-2.55-1,1.49,1.49,0,1,0,2.1,2.1A1.41,1.41,0,0,0,18,37.5ZM37.5,39a1.54,1.54,0,1,0-1-.45A1.41,1.41,0,0,0,37.5,39Z"/>
  </g>
</svg>
