<svg xmlns="http://www.w3.org/2000/svg" viewBox="0 0 48 48">
  <defs>
    <style>
      .nav6-1 {
        fill: #fff;
      }
    </style>
  </defs>
  <g id="FG">
    <path class="nav6-1" d="M41.89,23.15c0,.14,0,.28,0,.43s0,.28,0,.42,0,.28,0,.42,0,.29,0,.43L48,28.64l-3.75,9-7-1.6c-.38.41-.77.8-1.18,1.18l1.6,7-9,3.75-3.79-6.11-.43,0h-.84l-.43,0L19.36,48l-9-3.75,1.6-7c-.41-.38-.8-.77-1.18-1.18l-7,1.6L0,28.64l6.11-3.79c0-.14,0-.28,0-.43s0-.28,0-.42,0-.28,0-.42,0-.29,0-.43L0,19.36l3.75-9,7,1.6c.38-.41.77-.8,1.18-1.18l-1.6-7,9-3.75,3.79,6.11.43,0h.84l.43,0L28.64,0l9,3.75-1.6,7c.41.38.8.77,1.18,1.18l7-1.6,3.75,9Zm-2.75,3.07.09-1.12c0-.37.05-.75.05-1.12s0-.73-.05-1.11-.06-.75-.09-1.11l5.56-3.47-2-4.9-6.39,1.49a18.46,18.46,0,0,0-1.49-1.65c-.51-.51-1.07-1-1.67-1.51l1.49-6.39-4.9-2L26.22,8.86l-1.11-.09c-.38,0-.75,0-1.11,0s-.75,0-1.12,0l-1.12.09L18.29,3.3l-4.9,2,1.49,6.39a18.46,18.46,0,0,0-1.65,1.49c-.51.51-1,1.07-1.51,1.67L5.33,13.39l-2,4.9,5.56,3.49L8.77,22.9c0,.37,0,.75,0,1.12s0,.73,0,1.11l.09,1.11L3.3,29.71l2,4.9,6.39-1.49a18.46,18.46,0,0,0,1.49,1.65c.51.51,1.07,1,1.67,1.51l-1.49,6.39,4.9,2,3.49-5.56,1.11.09c.38,0,.75.05,1.11.05s.75,0,1.12-.05l1.12-.09,3.47,5.56,4.9-2-1.49-6.39a18.46,18.46,0,0,0,1.65-1.49c.51-.51,1-1.07,1.51-1.67l6.39,1.49,2-4.9ZM24,15.14a8.64,8.64,0,0,1,3.45.69,8.89,8.89,0,0,1,4.72,4.72,9,9,0,0,1,0,6.9,8.89,8.89,0,0,1-4.72,4.72,9,9,0,0,1-6.9,0,8.89,8.89,0,0,1-4.72-4.72,9,9,0,0,1,0-6.9,8.89,8.89,0,0,1,4.72-4.72A8.64,8.64,0,0,1,24,15.14Zm0,15.08a6.2,6.2,0,0,0,2.43-.48,6.19,6.19,0,0,0,3.31-3.31,6.39,6.39,0,0,0,0-4.86,6.19,6.19,0,0,0-3.31-3.31,6.39,6.39,0,0,0-4.86,0,6.19,6.19,0,0,0-3.31,3.31,6.39,6.39,0,0,0,0,4.86,6.19,6.19,0,0,0,3.31,3.31A6.2,6.2,0,0,0,24,30.22Z"/>
  </g>
</svg>
