<svg xmlns="http://www.w3.org/2000/svg" viewBox="0 0 102.25 102.25">
  <defs>
    <style>
      .sen-1 {
        fill: #ed3511;
      }

      .sen-2 {
        fill: #fff;
      }
    </style>
  </defs>
  <g id="FG">
    <g>
      <circle class="sen-1" cx="51.12" cy="51.12" r="51.12"/>
      <path class="sen-2" d="M69.7,29.55a26.28,26.28,0,0,0-8.53-5.7,26.47,26.47,0,0,0-20.09,0,26.28,26.28,0,0,0-8.53,5.7l-2.64-2.64a30.9,30.9,0,0,1,4.57-3.75,30.58,30.58,0,0,1,5.17-2.76,28.94,28.94,0,0,1,5.6-1.7A30,30,0,0,1,57,18.7a28.63,28.63,0,0,1,5.59,1.7,29.86,29.86,0,0,1,9.75,6.51ZM32.37,44.37h37.5V78.12H32.37Zm32-9.52a18.78,18.78,0,0,0-26.55,0l-2.63-2.63a22.4,22.4,0,0,1,31.81,0ZM36.12,74.37h30V48.12h-30Zm4.4-36.85a14.93,14.93,0,0,1,21.21,0l-2.64,2.64a11,11,0,0,0-3.64-2.44,11.43,11.43,0,0,0-8.65,0,11,11,0,0,0-3.64,2.44Zm6.85,29.35h7.5v3.75h-7.5Z"/>
    </g>
  </g>
</svg>
