<svg xmlns="http://www.w3.org/2000/svg" viewBox="0 0 25.88 25.88">
  <defs>
    <style>
      .tec-1 {
        fill: #22b573;
      }
    </style>
  </defs>
  <g id="Overlay">
    <path class="tec-1" d="M1.62,6.47H0V0H6.47V1.62H1.62Zm0,17.79H6.47v1.62H0V19.41H1.62ZM15.83,13.59a5.9,5.9,0,0,1,1.51,1,6.48,6.48,0,0,1,2.07,4.8H17.79a5.05,5.05,0,0,0-.37-1.92,4.68,4.68,0,0,0-1-1.54,4.77,4.77,0,0,0-1.53-1,5,5,0,0,0-3.83,0A4.85,4.85,0,0,0,8.46,17.5a4.82,4.82,0,0,0-.37,1.91H6.47a6.36,6.36,0,0,1,.25-1.8A6.18,6.18,0,0,1,7.43,16a6.7,6.7,0,0,1,1.13-1.37,6.27,6.27,0,0,1,1.5-1,4.82,4.82,0,0,1-1.45-1.72A4.77,4.77,0,0,1,8.09,9.7a4.61,4.61,0,0,1,.38-1.88,5.16,5.16,0,0,1,1-1.54,4.93,4.93,0,0,1,1.54-1,4.75,4.75,0,0,1,3.77,0A4.88,4.88,0,0,1,17.4,7.82a4.62,4.62,0,0,1,.39,1.88,4.7,4.7,0,0,1-.52,2.18A4.59,4.59,0,0,1,15.83,13.59ZM9.7,9.7A3.12,3.12,0,0,0,10,11a3.38,3.38,0,0,0,1.72,1.72,3.16,3.16,0,0,0,2.51,0,3.35,3.35,0,0,0,1-.7,3.28,3.28,0,0,0,.69-1,3.12,3.12,0,0,0,.26-1.26,3.18,3.18,0,0,0-.26-1.25,3.2,3.2,0,0,0-1.72-1.72,3.16,3.16,0,0,0-2.51,0,3.28,3.28,0,0,0-1,.69,3.35,3.35,0,0,0-.7,1A3.18,3.18,0,0,0,9.7,9.7ZM25.88,0V6.47H24.26V1.62H19.41V0ZM24.26,19.41h1.62v6.47H19.41V24.26h4.85Z"/>
  </g>
</svg>
