<svg xmlns="http://www.w3.org/2000/svg" viewBox="0 0 64 64">
  <defs>
    <style>
      .truck-1 {
        fill: #fff;
      }
    </style>
  </defs>
  <g id="FG">
    <path class="truck-1" d="M41.91,13.74V36h16.7v5.91H55.82a8.17,8.17,0,0,0-14.25,0H22.43a8.17,8.17,0,0,0-14.25,0H5.39V15.31A1.59,1.59,0,0,1,7,13.74H41.91m4-4H7a5.59,5.59,0,0,0-5.57,5.57v30.6H7a8.35,8.35,0,1,0,16.69,0h16.7a8.35,8.35,0,1,0,16.69,0h5.57V32L54.26,20.87H45.91V9.74Zm0,22.26V25h7l5.45,7Zm2.78,18.08a4.17,4.17,0,1,1,4.18-4.17,4.16,4.16,0,0,1-4.18,4.17Zm-33.38,0a4.17,4.17,0,1,1,4.17-4.17,4.17,4.17,0,0,1-4.17,4.17Z"/>
  </g>
</svg>
