<svg xmlns="http://www.w3.org/2000/svg" viewBox="0 0 64 64">
  <defs>
    <style>
      .ship-1 {
        fill: #fff;
      }
    </style>
  </defs>
  <g id="FG">
    <path class="ship-1" d="M55.67,50.75h4.45V54.5H53.8a8.14,8.14,0,0,1-2.19,2.8,4.42,4.42,0,0,1-2.73,1,7.56,7.56,0,0,1-5.6-2.46,4.34,4.34,0,0,0-1.3-.95,3.53,3.53,0,0,0-1.54-.34,3.74,3.74,0,0,0-2.84,1.29A7.67,7.67,0,0,1,35,57.62a7.6,7.6,0,0,1-6.06,0,7.67,7.67,0,0,1-2.57-1.83,4.26,4.26,0,0,0-1.31-.95,3.55,3.55,0,0,0-1.53-.34,3.76,3.76,0,0,0-2.84,1.29,7.56,7.56,0,0,1-5.6,2.46,4.42,4.42,0,0,1-2.73-1,8.14,8.14,0,0,1-2.19-2.8H3.88V50.75H8.33L3.88,41.81v-4.6l7.5-2.49v-14h4.45l3.75-7.5h6.8V5.75H37.62v7.5h6.8l3.75,7.5h4.45v14l7.5,2.49v4.6ZM29.16,53.21a3.55,3.55,0,0,0,1,.79V32.41l-22.5,7.5v1l5.92,11.8a5.07,5.07,0,0,0,.88,1.34,1.22,1.22,0,0,0,.7.42,3.55,3.55,0,0,0,1.53-.34A4.19,4.19,0,0,0,18,53.21a7.6,7.6,0,0,1,11.19,0Zm-14-19.75L32,27.84l16.88,5.62v-9H15.12Zm4.93-12.71H44L42.08,17H21.92Zm10.07-7.5h3.76V9.5H30.12ZM50.49,52.71l5.89-11.77v-1l-22.5-7.5V54a3.55,3.55,0,0,0,1-.79,7.57,7.57,0,0,1,2.57-1.83A7.58,7.58,0,0,1,46,53.21a3.76,3.76,0,0,0,2.85,1.29,1.22,1.22,0,0,0,.7-.42,5.07,5.07,0,0,0,.88-1.34Z"/>
  </g>
</svg>
