<svg width="22" height="20" viewBox="0 0 22 20" fill="none" xmlns="http://www.w3.org/2000/svg">
<path d="M17.1875 15.5C17.474 15.5 17.7425 15.5537 17.9932 15.6611C18.2438 15.7686 18.4622 15.9154 18.6484 16.1016C18.8346 16.2878 18.9814 16.5062 19.0889 16.7568C19.1963 17.0075 19.25 17.276 19.25 17.5625C19.25 17.849 19.1963 18.1175 19.0889 18.3682C18.9814 18.6188 18.8346 18.8372 18.6484 19.0234C18.4622 19.2096 18.2438 19.3564 17.9932 19.4639C17.7425 19.5713 17.474 19.625 17.1875 19.625C16.901 19.625 16.6325 19.5713 16.3818 19.4639C16.1312 19.3564 15.9128 19.2096 15.7266 19.0234C15.5404 18.8372 15.3936 18.6188 15.2861 18.3682C15.1787 18.1175 15.125 17.849 15.125 17.5625C15.125 17.3405 15.1644 17.1113 15.2432 16.875H9.50684C9.58561 17.1113 9.625 17.3405 9.625 17.5625C9.625 17.849 9.57129 18.1175 9.46387 18.3682C9.35645 18.6188 9.20964 18.8372 9.02344 19.0234C8.83724 19.2096 8.61882 19.3564 8.36816 19.4639C8.11751 19.5713 7.84896 19.625 7.5625 19.625C7.27604 19.625 7.00749 19.5713 6.75684 19.4639C6.50618 19.3564 6.28776 19.2096 6.10156 19.0234C5.91536 18.8372 5.76855 18.6188 5.66113 18.3682C5.55371 18.1175 5.5 17.849 5.5 17.5625C5.5 17.1686 5.60384 16.8034 5.81152 16.4668C6.02637 16.1302 6.31283 15.876 6.6709 15.7041L2.03027 1.75H0V0.375H3.01855L3.93164 3.125H22L18.7988 12.75H7.14355L8.05664 15.5H17.1875ZM4.39355 4.5L6.68164 11.375H17.7998L20.0879 4.5H4.39355ZM8.25 17.5625C8.25 17.3763 8.18197 17.2152 8.0459 17.0791C7.90983 16.943 7.7487 16.875 7.5625 16.875C7.3763 16.875 7.21517 16.943 7.0791 17.0791C6.94303 17.2152 6.875 17.3763 6.875 17.5625C6.875 17.7487 6.94303 17.9098 7.0791 18.0459C7.21517 18.182 7.3763 18.25 7.5625 18.25C7.7487 18.25 7.90983 18.182 8.0459 18.0459C8.18197 17.9098 8.25 17.7487 8.25 17.5625ZM17.1875 18.25C17.3737 18.25 17.5348 18.182 17.6709 18.0459C17.807 17.9098 17.875 17.7487 17.875 17.5625C17.875 17.3763 17.807 17.2152 17.6709 17.0791C17.5348 16.943 17.3737 16.875 17.1875 16.875C17.0013 16.875 16.8402 16.943 16.7041 17.0791C16.568 17.2152 16.5 17.3763 16.5 17.5625C16.5 17.7487 16.568 17.9098 16.7041 18.0459C16.8402 18.182 17.0013 18.25 17.1875 18.25Z" fill="#E2032C"/>
</svg>
