<svg width="14" height="3" viewBox="0 0 14 3" fill="none" xmlns="http://www.w3.org/2000/svg">
<path d="M6.99999 2.91667C7.80541 2.91667 8.45832 2.26375 8.45832 1.45833C8.45832 0.652918 7.80541 0 6.99999 0C6.19457 0 5.54166 0.652918 5.54166 1.45833C5.54166 2.26375 6.19457 2.91667 6.99999 2.91667Z" fill="#4F4F4F"/>
<path d="M12.5417 2.91667C13.3471 2.91667 14 2.26375 14 1.45833C14 0.652918 13.3471 0 12.5417 0C11.7363 0 11.0833 0.652918 11.0833 1.45833C11.0833 2.26375 11.7363 2.91667 12.5417 2.91667Z" fill="#4F4F4F"/>
<path d="M1.45833 2.91667C2.26375 2.91667 2.91667 2.26375 2.91667 1.45833C2.91667 0.652918 2.26375 0 1.45833 0C0.652918 0 0 0.652918 0 1.45833C0 2.26375 0.652918 2.91667 1.45833 2.91667Z" fill="#4F4F4F"/>
</svg>
