<svg id="Layer_1" data-name="Layer 1" xmlns="http://www.w3.org/2000/svg" viewBox="0 0 32.27 32.27">
  <defs>
    <style>
      .cls-1 {
        fill: #fff;
      }
    </style>
  </defs>
  <title>DevAssets</title>
  <path class="cls-1" d="M16.14,32.27a16.05,16.05,0,0,1-4.3-.57A16.25,16.25,0,0,1,8,30.08a16.59,16.59,0,0,1-3.27-2.52,16,16,0,0,1-2.52-3.27A16.25,16.25,0,0,1,.57,20.43a16.47,16.47,0,0,1,0-8.59A16.25,16.25,0,0,1,2.19,8,16.07,16.07,0,0,1,8,2.19,16.25,16.25,0,0,1,11.84.57a16.47,16.47,0,0,1,8.59,0,16.25,16.25,0,0,1,3.86,1.62,16,16,0,0,1,3.27,2.52A16.59,16.59,0,0,1,30.08,8a16.25,16.25,0,0,1,1.62,3.86,16.47,16.47,0,0,1,0,8.59,16.25,16.25,0,0,1-1.62,3.86,16.07,16.07,0,0,1-5.79,5.79,16.25,16.25,0,0,1-3.86,1.62A16,16,0,0,1,16.14,32.27Zm0-30.12a13.46,13.46,0,0,0-3.71.51A13.88,13.88,0,0,0,4.07,9.09a13.67,13.67,0,0,0-1.41,3.33,13.75,13.75,0,0,0,0,7.42A14,14,0,0,0,6.25,26a14.06,14.06,0,0,0,2.84,2.19,14.57,14.57,0,0,0,3.34,1.41,14,14,0,0,0,7.42,0,14.76,14.76,0,0,0,3.34-1.41,14.15,14.15,0,0,0,5-5,14.65,14.65,0,0,0,1.41-3.35,14,14,0,0,0,0-7.41,14.57,14.57,0,0,0-1.41-3.34A14.06,14.06,0,0,0,26,6.25a14,14,0,0,0-6.17-3.59A13.4,13.4,0,0,0,16.14,2.15Zm1.07,21.52H15.06V12.91h2.15Zm0-12.91H15.06V8.61h2.15Z"/>
</svg>
