<svg xmlns="http://www.w3.org/2000/svg" viewBox="0 0 72.41 100">
  <defs>
    <style>
      .cls-1 {
        fill: #0078d4;
      }

      .cls-2 {
        fill: #fff;
      }

      .cls-3 {
        fill: #f25022;
      }

      .cls-4 {
        fill: #d1d3d4;
      }
    </style>
  </defs>
  <title>AOTE</title>
  <g id="Layer_2" data-name="Layer 2">
    <g>
      <path class="cls-1" d="M36.2,0A36.2,36.2,0,0,0,0,36.2C0,79,36.2,100,36.2,100S72.41,79,72.41,36.2A36.21,36.21,0,0,0,36.2,0Z"/>
      <circle class="cls-2" cx="36.2" cy="37.2" r="30.89"/>
      <g>
        <path class="cls-3" d="M37.64,9.73H35.13A2.14,2.14,0,0,0,33,11.87,28.78,28.78,0,0,0,33.75,16,7.62,7.62,0,0,1,39,16a28.78,28.78,0,0,0,.76-4.14A2.14,2.14,0,0,0,37.64,9.73Z"/>
        <path class="cls-3" d="M48.53,21.47a12.61,12.61,0,0,0-7.3-8.93,35.11,35.11,0,0,1-.75,3.83l-.33,1.35a.28.28,0,0,1-.38.2l-1.3-.51a6.22,6.22,0,0,0-4.17,0L33,17.92a.28.28,0,0,1-.38-.2l-.34-1.35a36.77,36.77,0,0,1-.77-4,12.61,12.61,0,0,0-7.64,9.08,7.36,7.36,0,0,0-1.2,1v3.73A7.16,7.16,0,0,0,24,27.39h0l.11.08.18.11.13.08.22.13.15.09.24.13.13.07.23.12.12.05.33.15.13.06.26.12.12,0,.37.15.11,0,.31.11.12,0,.41.14.07,0,.37.12.11,0,.45.13a2.67,2.67,0,0,0,.69.09H43a2.72,2.72,0,0,0,.69-.09l.44-.13.12,0,.37-.12.07,0,.41-.14.12,0,.31-.11.1,0,.38-.15.11,0,.27-.12.13-.06.33-.15L47,28.2l.23-.12.14-.07.23-.13.16-.09.21-.13.14-.08.18-.11.11-.08h0a7.08,7.08,0,0,0,1.35-1.15V22.51A7.71,7.71,0,0,0,48.53,21.47Z"/>
        <path class="cls-4" d="M47.2,30l-.23.11-.11.06-.33.15-.13.06-.27.11L46,30.5l-.38.15-.1,0-.31.11-.12,0L44.7,31l-.07,0-.37.11-.12,0-.42.12a2.82,2.82,0,0,1-.71.09H29.4a2.82,2.82,0,0,1-.71-.09l-.43-.12-.11,0L27.78,31l-.07,0-.41-.14-.12,0-.31-.11-.11,0-.37-.15-.12-.05L26,30.34l-.13-.06-.33-.15-.12-.06L25.2,30h0a3.14,3.14,0,0,0-.49,1.77,3.06,3.06,0,0,0,.59,1.91,2.36,2.36,0,0,1,.51,1c1.29,6,5.45,10.47,10.39,10.47s9.11-4.43,10.39-10.47a2.36,2.36,0,0,1,.51-1A3.36,3.36,0,0,0,47.2,30Z"/>
        <g>
          <circle class="cls-4" cx="26.5" cy="59.05" r="0.97"/>
          <circle class="cls-4" cx="45.9" cy="59.05" r="0.97"/>
        </g>
      </g>
      <path class="cls-4" d="M60.35,56.45a15.29,15.29,0,0,0-1.6-5c-2.26-4-7.56-6.22-11.56-7.12V54.63H44.74V45.84c-1.4,2.35-4.69,4-8.54,4s-7.14-1.65-8.54-4v8.79H25.22V44.31c-4,.9-9.3,3.11-11.56,7.12a15.3,15.3,0,0,0-1.61,5,31,31,0,0,0,11.31,8.84V58.2a2.71,2.71,0,0,1,2.71-2.71H46.34a2.71,2.71,0,0,1,2.71,2.71v7.09A30.89,30.89,0,0,0,60.35,56.45Z"/>
    </g>
  </g>
</svg>
