<svg xmlns="http://www.w3.org/2000/svg" viewBox="0 0 44 37.21">
  <defs>
    <style>
      .cls-1 {
        fill: #fff;
      }
    </style>
  </defs>
  <title>AOTE</title>
  <g id="Layer_2" data-name="Layer 2">
    <g>
      <path class="cls-1" d="M22,0a9.87,9.87,0,0,0-9.87,9.87C12.13,21.55,22,27.26,22,27.26s9.87-5.71,9.87-17.39A9.87,9.87,0,0,0,22,0Zm0,13.72a4.24,4.24,0,1,1,4.24-4.24A4.24,4.24,0,0,1,22,13.72Z"/>
      <g>
        <path class="cls-1" d="M22,37.21,20.05,36a.87.87,0,1,1,.9-1.49l1.05.63,1.05-.63A.87.87,0,1,1,24,36Z"/>
        <path class="cls-1" d="M17,34.08a.84.84,0,0,1-.45-.13l-3.46-2.08a.87.87,0,0,1,.9-1.5l3.46,2.08A.88.88,0,0,1,17,34.08Zm-6.92-4.17a.81.81,0,0,1-.45-.13L6.2,27.7a.88.88,0,0,1-.29-1.2.86.86,0,0,1,1.19-.3l3.47,2.08a.88.88,0,0,1,.29,1.2A.85.85,0,0,1,10.12,29.91Z"/>
        <path class="cls-1" d="M3.19,25.74a.84.84,0,0,1-.45-.13L0,24l2.74-1.65a.88.88,0,0,1,1.2.3.87.87,0,0,1-.3,1.2L3.39,24l.25.16a.87.87,0,0,1-.45,1.62Z"/>
        <path class="cls-1" d="M6.65,21.85a.86.86,0,0,1-.74-.42.88.88,0,0,1,.29-1.2l3.47-2.09a.87.87,0,0,1,.9,1.5L7.1,21.73A.89.89,0,0,1,6.65,21.85Z"/>
        <path class="cls-1" d="M37.35,21.85a.89.89,0,0,1-.45-.12l-3.47-2.09a.87.87,0,0,1,.9-1.5l3.47,2.09a.87.87,0,0,1,.29,1.2A.86.86,0,0,1,37.35,21.85Z"/>
        <path class="cls-1" d="M40.81,25.74a.87.87,0,0,1-.45-1.62l.25-.16-.25-.15a.87.87,0,0,1-.3-1.2.88.88,0,0,1,1.2-.3L44,24l-2.74,1.65A.84.84,0,0,1,40.81,25.74Z"/>
        <path class="cls-1" d="M27,34.08a.86.86,0,0,1-.75-.43.88.88,0,0,1,.3-1.2L30,30.37a.87.87,0,1,1,.9,1.5L27.41,34A.84.84,0,0,1,27,34.08Zm6.92-4.17a.85.85,0,0,1-.74-.43.88.88,0,0,1,.29-1.2L36.9,26.2a.86.86,0,0,1,1.19.3.88.88,0,0,1-.29,1.2l-3.47,2.08A.81.81,0,0,1,33.88,29.91Z"/>
      </g>
    </g>
  </g>
</svg>
