<svg width="22" height="20" viewBox="0 0 22 20" fill="none" xmlns="http://www.w3.org/2000/svg">
<path d="M16.1562 0.375C16.9655 0.375 17.7246 0.528971 18.4336 0.836914C19.1426 1.14486 19.762 1.5638 20.292 2.09375C20.8219 2.61654 21.2373 3.236 21.5381 3.95215C21.846 4.66113 22 5.41667 22 6.21875C22 6.99935 21.8496 7.74772 21.5488 8.46387C21.2552 9.18001 20.8363 9.81022 20.292 10.3545L11 19.6357L1.70801 10.3545C1.16374 9.81022 0.741211 9.18001 0.44043 8.46387C0.14681 7.74772 0 6.99935 0 6.21875C0 5.41667 0.150391 4.66113 0.451172 3.95215C0.759115 3.236 1.17806 2.61654 1.70801 2.09375C2.23796 1.5638 2.85742 1.14486 3.56641 0.836914C4.27539 0.528971 5.03451 0.375 5.84375 0.375C6.43815 0.375 6.9681 0.443034 7.43359 0.579102C7.89909 0.715169 8.32878 0.904948 8.72266 1.14844C9.1237 1.38477 9.50326 1.67122 9.86133 2.00781C10.2266 2.3444 10.6061 2.71322 11 3.11426C11.3939 2.71322 11.7699 2.3444 12.1279 2.00781C12.4932 1.67122 12.8727 1.38477 13.2666 1.14844C13.6676 0.904948 14.1009 0.715169 14.5664 0.579102C15.0319 0.443034 15.5618 0.375 16.1562 0.375ZM19.3145 9.37695C19.737 8.95443 20.0592 8.47103 20.2812 7.92676C20.5033 7.38249 20.6143 6.81315 20.6143 6.21875C20.6143 5.5957 20.4997 5.01562 20.2705 4.47852C20.0413 3.93424 19.7227 3.46517 19.3145 3.07129C18.9134 2.67025 18.4408 2.35872 17.8965 2.13672C17.3594 1.90755 16.7793 1.79297 16.1562 1.79297C15.5547 1.79297 15.0212 1.88965 14.5557 2.08301C14.0902 2.26921 13.6605 2.51628 13.2666 2.82422C12.8727 3.13216 12.4932 3.48307 12.1279 3.87695C11.7699 4.26367 11.3939 4.65755 11 5.05859C10.6133 4.67188 10.2373 4.28158 9.87207 3.8877C9.50684 3.49382 9.1237 3.13932 8.72266 2.82422C8.32878 2.50911 7.89551 2.2513 7.42285 2.05078C6.95736 1.85026 6.43099 1.75 5.84375 1.75C5.22786 1.75 4.64779 1.86816 4.10352 2.10449C3.55924 2.33366 3.08301 2.65234 2.6748 3.06055C2.27376 3.46159 1.95508 3.93424 1.71875 4.47852C1.48958 5.02279 1.375 5.60286 1.375 6.21875C1.375 6.81315 1.486 7.38249 1.70801 7.92676C1.93717 8.47103 2.26302 8.95443 2.68555 9.37695L11 17.6914L19.3145 9.37695Z" fill="#828282"/>
</svg>
