<svg width="18" height="16" viewBox="0 0 18 16" fill="none" xmlns="http://www.w3.org/2000/svg">
<path d="M7.73272 15.7907C8.03264 16.0764 8.50738 16.0649 8.79306 15.7649C9.07875 15.465 9.06721 14.9903 8.76728 14.7046L2.51587 8.74997L17.25 8.74997C17.6642 8.74997 18 8.41418 18 7.99997C18 7.58576 17.6642 7.24997 17.25 7.24997L2.51577 7.24997L8.76728 1.29526C9.06721 1.00958 9.07875 0.534844 8.79306 0.234917C8.50738 -0.0650099 8.03264 -0.0765531 7.73272 0.209134L0.313785 7.27584C0.144859 7.43674 0.0449066 7.64199 0.0139294 7.85536C0.00478934 7.90215 -4.32463e-09 7.9505 0 7.99997C4.3331e-09 8.04954 0.00480748 8.09798 0.0139828 8.14486C0.045022 8.3581 0.144956 8.5632 0.313786 8.72401L7.73272 15.7907Z" fill="white"/>
</svg>
