<svg width="12" height="12" viewBox="0 0 12 12" fill="none" xmlns="http://www.w3.org/2000/svg">
<path d="M4.5 5.25V4.5H5.25V5.25H4.5ZM6.75 9.75V9H7.5V9.75H6.75ZM9 5.25V4.5H9.75V5.25H9ZM6.75 5.25V4.5H7.5V5.25H6.75ZM4.5 6.75V6H5.25V6.75H4.5ZM2.25 6.75V6H3V6.75H2.25ZM9 6.75V6H9.75V6.75H9ZM6.75 6.75V6H7.5V6.75H6.75ZM4.5 8.25V7.5H5.25V8.25H4.5ZM2.25 8.25V7.5H3V8.25H2.25ZM9 8.25V7.5H9.75V8.25H9ZM6.75 8.25V7.5H7.5V8.25H6.75ZM4.5 9.75V9H5.25V9.75H4.5ZM2.25 9.75V9H3V9.75H2.25ZM9.75 0.75H12V11.25H0V0.75H2.25V0H3V0.75H9V0H9.75V0.75ZM2.25 1.5H0.75V3H11.25V1.5H9.75V2.25H9V1.5H3V2.25H2.25V1.5ZM0.75 10.5H11.25V3.75H0.75V10.5Z" fill="#4F4F4F"/>
</svg>
