<svg width="15" height="16" viewBox="0 0 15 16" fill="none" xmlns="http://www.w3.org/2000/svg">
<path d="M14.3438 4.03906C14.5625 4.49219 14.7266 4.97396 14.8359 5.48438C14.9453 5.98958 15 6.49479 15 7C15 7.68229 14.9062 8.34115 14.7188 8.97656C14.5312 9.60677 14.263 10.1953 13.9141 10.7422C13.5703 11.2891 13.151 11.7839 12.6562 12.2266C12.1615 12.6693 11.6094 13.0365 11 13.3281V14L6 14V15H8L8 16H3V15H5V14H0L0 7H1C1 6.35417 1.08333 5.73438 1.25 5.14062C1.41667 4.54167 1.65104 3.98438 1.95312 3.46875C2.26042 2.94792 2.625 2.47656 3.04688 2.05469C3.47396 1.6276 3.94531 1.26302 4.46094 0.960938C4.98177 0.653646 5.53906 0.416667 6.13281 0.25C6.73177 0.0833333 7.35417 0 8 0C8.67708 0 9.33333 0.09375 9.96875 0.28125C10.6042 0.46875 11.1953 0.736979 11.7422 1.08594C12.2943 1.42969 12.7891 1.84896 13.2266 2.34375C13.6693 2.83854 14.0365 3.39063 14.3281 4H14.3438V4.03906ZM13.1953 4C12.8151 3.33854 12.3281 2.77344 11.7344 2.30469C11.1406 1.83073 10.4792 1.48177 9.75 1.25781C10 1.66406 10.2005 2.10677 10.3516 2.58594C10.5078 3.0599 10.6302 3.53125 10.7188 4H13.1953ZM14 7C14 6.3125 13.8854 5.64583 13.6562 5H10.875C10.9583 5.66667 11 6.33073 11 6.99219C11 7.65365 11 8.32292 11 9H13.6562C13.8854 8.35417 14 7.6875 14 7ZM10 7C10 6.66146 9.98958 6.32813 9.96875 6C9.94792 5.66667 9.91667 5.33333 9.875 5H6.125C6.08333 5.33333 6.05208 5.66667 6.03125 6C6.01042 6.32813 6 6.66146 6 7H10ZM8 1.03906C7.84896 1.03906 7.70312 1.09635 7.5625 1.21094C7.42708 1.32031 7.29948 1.46615 7.17969 1.64844C7.0651 1.82552 6.95833 2.02604 6.85938 2.25C6.76562 2.47396 6.67969 2.69531 6.60156 2.91406C6.52865 3.13281 6.46615 3.33854 6.41406 3.53125C6.36198 3.72396 6.32292 3.88021 6.29688 4H9.70312C9.67708 3.88021 9.63802 3.72396 9.58594 3.53125C9.53385 3.33854 9.46875 3.13281 9.39062 2.91406C9.31771 2.69531 9.23177 2.47396 9.13281 2.25C9.03906 2.02604 8.93229 1.82552 8.8125 1.64844C8.69792 1.46615 8.57031 1.32031 8.42969 1.21094C8.29427 1.09635 8.15104 1.03906 8 1.03906ZM6.25 1.25781C5.52083 1.48177 4.85938 1.83073 4.26562 2.30469C3.67187 2.77344 3.1849 3.33854 2.80469 4L5.28125 4C5.36979 3.53125 5.48958 3.0599 5.64062 2.58594C5.79688 2.10677 6 1.66406 6.25 1.25781ZM2.34375 5C2.11458 5.64583 2 6.3125 2 7H5C5 6.66146 5.01042 6.32812 5.03125 6C5.05208 5.66667 5.08333 5.33333 5.125 5H2.34375ZM1 13H10L10 8H1L1 13ZM11 12.1953C11.4583 11.9297 11.8724 11.612 12.2422 11.2422C12.6172 10.8724 12.9375 10.4583 13.2031 10H11L11 12.1953Z" fill="#BDBDBD"/>
</svg>
