<svg width="19" height="16" viewBox="0 0 19 16" fill="none" xmlns="http://www.w3.org/2000/svg">
<path d="M18.2857 12.1513C18.2786 12.1595 18.2691 12.1649 18.2587 12.1668C18.1658 12.1669 18.0729 12.1748 17.9812 12.1904C17.7237 12.1082 17.4586 12.0377 17.1859 11.9789C17.1559 11.9746 17.1149 11.9621 17.085 11.9579C16.4898 11.8342 15.8877 11.751 15.2823 11.7088C11.8151 10.9493 7.97675 11.7108 6.85718 11.9708C7.47781 10.87 8.79094 8.90961 10.5421 8.48517C13.5783 7.74803 16.3835 11.1261 18.2857 12.1513Z" fill="white"/>
<path d="M18.2857 11.8478C16.5188 12.9985 14.0888 16.2242 11.0541 15.9877C8.6913 15.8071 7.34735 13.7603 6.85718 12.8369C11.142 11.3167 15.0137 11.4179 15.3719 11.4372C15.3904 11.4337 15.3904 11.4337 15.4015 11.4412C16.1028 11.5015 16.6745 11.5862 17.1202 11.6645C17.1498 11.6686 17.1903 11.6801 17.2197 11.6842C17.762 11.7643 18.1156 11.8602 18.2857 11.8478Z" fill="white"/>
<path d="M1.52848 0.761902C1.52403 0.770731 1.52262 0.780776 1.52448 0.790483C1.57987 0.93751 1.61783 1.04167 1.61783 1.04167C1.7836 1.23311 1.9455 1.45365 2.09669 1.66569C2.11076 1.6908 2.13542 1.72337 2.14937 1.74848C2.48066 2.21904 2.78046 2.71088 3.04681 3.22081C5.02696 5.96411 5.86398 9.59615 6.08269 10.6667C6.76116 9.72566 7.88132 7.86903 7.56332 6.16869C7.02158 3.2696 3.11588 2.05038 1.52848 0.761902Z" fill="white"/>
<path d="M1.48726 0.761902C1.12483 2.81225 -0.96613 6.29713 0.537301 8.92234C1.69962 10.977 4.22445 11.3604 5.33333 11.4286C5.09933 8.59036 4.34927 5.81159 3.11612 3.21447C3.10463 3.20714 3.11252 3.19628 3.10103 3.18829C2.81678 2.69157 2.50562 2.20905 2.16879 1.74264C2.14771 1.716 2.12883 1.68786 2.11231 1.65848C1.79238 1.19776 1.55814 0.918967 1.48726 0.761902Z" fill="white"/>
<path d="M13.0292 0C13.0229 0.0109819 13.0229 0.0109819 13.0074 0.014464C12.969 0.129105 12.9405 0.202898 12.9405 0.202898C12.9298 0.398338 12.9091 0.592805 12.8785 0.785208C12.8751 0.814806 12.8687 0.825386 12.8654 0.855519C12.7994 1.27797 12.7143 1.69577 12.6104 2.10706C12.274 4.59071 11.0512 6.94527 10.6665 7.61905C11.3826 7.47789 12.686 7.08977 13.2916 6.02948C14.3229 4.19938 13.1582 1.50278 13.0292 0Z" fill="white"/>
<path d="M12.9523 0C11.7728 0.913546 9.09211 1.71392 8.50153 3.86853C8.04008 5.55029 9.01744 7.0304 9.4939 7.61905C10.7829 5.98541 11.8033 4.12351 12.5107 2.11472L12.5179 2.10327C12.6306 1.69271 12.724 1.27623 12.7978 0.85544C12.797 0.830243 12.8022 0.805238 12.8128 0.782842C12.8457 0.519258 12.8923 0.257896 12.9523 0V0Z" fill="white"/>
</svg>
