<svg width="14" height="15" viewBox="0 0 14 15" fill="none" xmlns="http://www.w3.org/2000/svg">
<path d="M11.7812 5.41406C12.1198 5.58594 12.4245 5.79948 12.6953 6.05469C12.9714 6.30469 13.2057 6.58594 13.3984 6.89844C13.5911 7.20573 13.7396 7.53906 13.8438 7.89844C13.9479 8.2526 14 8.61979 14 9H13C13 8.58854 12.9193 8.20052 12.7578 7.83594C12.6016 7.47135 12.388 7.15365 12.1172 6.88281C11.8464 6.61198 11.5286 6.39844 11.1641 6.24219C10.7995 6.08073 10.4115 6 10 6C9.58854 6 9.20052 6.08073 8.83594 6.24219C8.47135 6.39844 8.15365 6.61198 7.88281 6.88281C7.61198 7.15365 7.39583 7.47135 7.23438 7.83594C7.07812 8.20052 7 8.58854 7 9C7 9.47396 6.89062 9.92448 6.67187 10.3516C6.45833 10.7786 6.16146 11.1328 5.78125 11.4141C6.11979 11.5859 6.42448 11.7995 6.69531 12.0547C6.97135 12.3047 7.20573 12.5859 7.39844 12.8984C7.59115 13.2057 7.73958 13.5391 7.84375 13.8984C7.94792 14.2526 8 14.6198 8 15H7C7 14.5885 6.91927 14.2005 6.75781 13.8359C6.60156 13.4714 6.38802 13.1536 6.11719 12.8828C5.84635 12.612 5.52865 12.3984 5.16406 12.2422C4.79948 12.0807 4.41146 12 4 12C3.58854 12 3.20052 12.0807 2.83594 12.2422C2.47135 12.3984 2.15365 12.612 1.88281 12.8828C1.61198 13.1536 1.39583 13.4714 1.23437 13.8359C1.07812 14.2005 1 14.5885 1 15H0C0 14.6198 0.0520833 14.2526 0.15625 13.8984C0.260417 13.5391 0.408854 13.2057 0.601562 12.8984C0.794271 12.5859 1.02604 12.3047 1.29687 12.0547C1.57292 11.7995 1.88021 11.5859 2.21875 11.4141C1.83854 11.1328 1.53906 10.7786 1.32031 10.3516C1.10677 9.92448 1 9.47396 1 9C1 8.58854 1.07812 8.20052 1.23437 7.83594C1.39583 7.47135 1.61198 7.15365 1.88281 6.88281C2.15365 6.61198 2.47135 6.39844 2.83594 6.24219C3.20052 6.08073 3.58854 6 4 6C4.47396 6 4.92448 6.10938 5.35156 6.32813C5.77865 6.54167 6.13281 6.83854 6.41406 7.21875C6.61198 6.82813 6.86458 6.47917 7.17188 6.17188C7.47917 5.86458 7.82812 5.61198 8.21875 5.41406C7.83854 5.13281 7.53906 4.77865 7.32031 4.35156C7.10677 3.92448 7 3.47396 7 3C7 2.58854 7.07812 2.20052 7.23438 1.83594C7.39583 1.47135 7.61198 1.15365 7.88281 0.882813C8.15365 0.611979 8.47135 0.398438 8.83594 0.242188C9.20052 0.0807292 9.58854 0 10 0C10.4115 0 10.7995 0.0807292 11.1641 0.242188C11.5286 0.398438 11.8464 0.611979 12.1172 0.882813C12.388 1.15365 12.6016 1.47135 12.7578 1.83594C12.9193 2.20052 13 2.58854 13 3C13 3.47396 12.8906 3.92448 12.6719 4.35156C12.4583 4.77865 12.1615 5.13281 11.7812 5.41406ZM4 11C4.27083 11 4.52865 10.9479 4.77344 10.8438C5.01823 10.7344 5.22917 10.5911 5.40625 10.4141C5.58854 10.2318 5.73177 10.0208 5.83594 9.78125C5.94531 9.53646 6 9.27604 6 9C6 8.72917 5.94531 8.47135 5.83594 8.22656C5.73177 7.98177 5.58854 7.77083 5.40625 7.59375C5.22917 7.41146 5.01823 7.26823 4.77344 7.16406C4.52865 7.05469 4.27083 7 4 7C3.72396 7 3.46354 7.05469 3.21875 7.16406C2.97917 7.26823 2.76823 7.41146 2.58594 7.59375C2.40885 7.77083 2.26562 7.98177 2.15625 8.22656C2.05208 8.47135 2 8.72917 2 9C2 9.27604 2.05208 9.53646 2.15625 9.78125C2.26562 10.0208 2.40885 10.2318 2.58594 10.4141C2.76823 10.5911 2.97917 10.7344 3.21875 10.8438C3.46354 10.9479 3.72396 11 4 11ZM8 3C8 3.27604 8.05208 3.53646 8.15625 3.78125C8.26562 4.02083 8.40885 4.23177 8.58594 4.41406C8.76823 4.59115 8.97917 4.73438 9.21875 4.84375C9.46354 4.94792 9.72396 5 10 5C10.2708 5 10.5286 4.94792 10.7734 4.84375C11.0182 4.73438 11.2292 4.59115 11.4062 4.41406C11.5885 4.23177 11.7318 4.02083 11.8359 3.78125C11.9453 3.53646 12 3.27604 12 3C12 2.72917 11.9453 2.47135 11.8359 2.22656C11.7318 1.98177 11.5885 1.77083 11.4062 1.59375C11.2292 1.41146 11.0182 1.26823 10.7734 1.16406C10.5286 1.05469 10.2708 1 10 1C9.72396 1 9.46354 1.05469 9.21875 1.16406C8.97917 1.26823 8.76823 1.41146 8.58594 1.59375C8.40885 1.77083 8.26562 1.98177 8.15625 2.22656C8.05208 2.47135 8 2.72917 8 3Z" fill="#BDBDBD"/>
</svg>
