<svg xmlns="http://www.w3.org/2000/svg" viewBox="0 0 64 64">
  <defs>
    <style>
      .factory-1 {
        fill: #fff;
      }
    </style>
  </defs>
  <g id="FG">
    <g>
      <polygon class="factory-1" points="43.04 59.05 0.18 59.05 0.18 19.21 14.6 27.85 14.73 19.23 29.06 27.86 29.27 19.24 46.44 29.63 44.37 33.05 33.1 26.23 32.89 34.83 18.62 26.24 18.48 34.84 4.18 26.27 4.18 55.05 43.04 55.05 43.04 59.05"/>
      <path class="factory-1" d="M63.82,59.05H41.46L44.4,5H60.88Zm-18.14-4H59.6L57.1,9H48.19Z"/>
      <path class="factory-1" d="M17.4,42v2.34H12.2V42h5.2m4-4H8.2V48.38H21.4V38Z"/>
      <path class="factory-1" d="M34,42v2.34H28.82V42H34m4-4H24.82V48.38H38V38Z"/>
    </g>
  </g>
</svg>
