<svg xmlns="http://www.w3.org/2000/svg" viewBox="0 0 102.25 102.25">
  <defs>
    <style>
      .hist-1 {
        fill: #ed3511;
      }

      .hist-2 {
        fill: #fff;
      }
    </style>
  </defs>
  <g id="FG">
    <circle class="hist-1" cx="51.12" cy="51.12" r="51.12"/>
  </g>
  <g id="Overlay">
    <path class="hist-2" d="M73.45,28.8V73.45H28.8V28.8ZM32,32V57.5h3.73l2.72-2.71a1.53,1.53,0,0,1,1.12-.48,1.51,1.51,0,0,1,1.12.48l4.41,4.38,6.08-23.6a1.55,1.55,0,0,1,.57-.86,1.57,1.57,0,0,1,1-.33,1.6,1.6,0,0,1,1,.33,1.53,1.53,0,0,1,.54.89L56.81,46h3.88a1.55,1.55,0,0,1,1,.34,1.47,1.47,0,0,1,.56.86L64,54.31h6.23V32ZM70.26,70.26V57.5H62.79a1.53,1.53,0,0,1-1.55-1.22l-1.79-7.1H55.56a1.55,1.55,0,0,1-1-.34A1.47,1.47,0,0,1,54,48l-1.35-5.43L47.49,62.69a1.55,1.55,0,0,1-.56.86,1.62,1.62,0,0,1-1,.33,1.52,1.52,0,0,1-1.12-.47l-5.26-5.26-2.07,2.07a1.5,1.5,0,0,1-1.12.47H32v9.57Z"/>
  </g>
</svg>
