<svg xmlns="http://www.w3.org/2000/svg" viewBox="0 0 60 60">
  <defs>
    <style>
      .jacket-1 {
        fill: #22b573;
      }
    </style>
  </defs>
  <g id="FG">
    <g>
      <path class="jacket-1" d="M30,60c-10.87,0-14.22-3.1-14.57-3.45L15,56.11v-5.9h3v4.54c1.1.67,4.48,2.25,12,2.25s10.87-1.57,12-2.26V50.21h3v5.9l-.43.44C44.22,56.9,40.87,60,30,60Z"/>
      <rect class="jacket-1" x="28.5" y="12" width="3" height="46.5"/>
      <path class="jacket-1" d="M30,54c-9.39,0-15.81-2.82-16.32-3.8a1.43,1.43,0,0,1-.18-.7c0-2.72,0-5.86,0-9L12,48.29a1.52,1.52,0,0,1-.64,1C9.42,50.52,4.69,51.81.44,47.56A1.49,1.49,0,0,1,0,46.17l7.5-33a8,8,0,0,1,5.54-5.61l8.16-3,1,2.82-8.25,3a5,5,0,0,0-3.54,3.41L3.16,46a5.48,5.48,0,0,0,6,1L13.53,25.2A1.49,1.49,0,0,1,15.18,24c1.34.16,1.34.16,1.35,5.24,0,2.25,0,5.25,0,8.25,0,4.58,0,9.16,0,11.07A34,34,0,0,0,30,51a33.92,33.92,0,0,0,13.5-2.43V25.5a1.5,1.5,0,0,1,3-.3L50.83,47a5.52,5.52,0,0,0,6-1L49.54,13.83a5,5,0,0,0-3.46-3.39l-8.34-3,1-2.82,8.25,3a8,8,0,0,1,5.46,5.58l7.49,33a1.46,1.46,0,0,1-.4,1.39c-4.25,4.25-9,3-10.89,1.69a1.52,1.52,0,0,1-.64-1L46.5,40.65V49.5a1.43,1.43,0,0,1-.18.7C45.81,51.18,39.39,54,30,54Z"/>
      <path class="jacket-1" d="M7.5,55.5c-.85,0-5.21-.09-7.06-1.94A1.5,1.5,0,0,1,0,52.5v-6H3v5.23a11.36,11.36,0,0,0,3.59.74l2.57-5.14,2.68,1.34-3,6A1.49,1.49,0,0,1,7.5,55.5Z"/>
      <path class="jacket-1" d="M52.5,55.5a1.49,1.49,0,0,1-1.34-.83l-3-6,2.68-1.34,2.57,5.14A11.36,11.36,0,0,0,57,51.73V46.5h3v6a1.5,1.5,0,0,1-.44,1.06C57.72,55.41,53.36,55.5,52.5,55.5Z"/>
      <path class="jacket-1" d="M30,13.5c-3.37,0-9.75-1.57-9.75-7.5a1.48,1.48,0,0,1,.35-1L24.35.54A1.51,1.51,0,0,1,25.43,0a1.54,1.54,0,0,1,1.13.44A5.92,5.92,0,0,0,30,1.5,5.9,5.9,0,0,0,33.44.44a1.49,1.49,0,0,1,2.21.1L39.4,5a1.48,1.48,0,0,1,.34,1.14C39.42,8.71,37,13.5,30,13.5Zm-6.72-7c.48,3.92,6.46,4,6.72,4,4.84,0,6.24-2.81,6.63-4.11l-2.4-2.87A10.16,10.16,0,0,1,30,4.5a10.16,10.16,0,0,1-4.23-1Z"/>
      <path class="jacket-1" d="M19.5,46.5a1.59,1.59,0,0,1-.56-.11,1.5,1.5,0,0,1-.83-2l3-7.5a1.5,1.5,0,1,1,2.78,1.12l-3,7.5A1.49,1.49,0,0,1,19.5,46.5Z"/>
      <path class="jacket-1" d="M40.5,46.5a1.5,1.5,0,0,1-1.39-.94l-3-7.5a1.5,1.5,0,0,1,2.78-1.12l3,7.5a1.5,1.5,0,0,1-.83,2A1.55,1.55,0,0,1,40.5,46.5Z"/>
      <path class="jacket-1" d="M30.83,13.25l-1.66-2.5C32.94,8.24,33,1.56,33,1.5h3C36,1.84,35.94,9.84,30.83,13.25Z"/>
      <path class="jacket-1" d="M29.17,13.25C24.06,9.84,24,1.84,24,1.5h3c0,.06.07,6.74,3.83,9.25Z"/>
    </g>
  </g>
</svg>
