<svg xmlns="http://www.w3.org/2000/svg" viewBox="0 0 32.99 60">
  <defs>
    <style>
      .pants-1 {
        fill: #22b573;
      }
    </style>
  </defs>
  <g id="FG">
    <g>
      <path class="pants-1" d="M28.49,7.5h-24A1.5,1.5,0,0,1,3,6V1.5A1.5,1.5,0,0,1,4.49,0h24A1.5,1.5,0,0,1,30,1.5V6A1.5,1.5,0,0,1,28.49,7.5ZM6,4.5H27V3H6Z"/>
      <path class="pants-1" d="M31.49,60H21a1.5,1.5,0,0,1-1.49-1.34l-3-28.08-3,28.08A1.5,1.5,0,0,1,12,60H1.5A1.5,1.5,0,0,1,0,58.5c0-.35,0-34.83,3-52.75A1.5,1.5,0,0,1,4.49,4.5h24A1.49,1.49,0,0,1,30,5.75c2.62,15.72,3,44,3,52.3v.4A1.5,1.5,0,0,1,31.49,60Zm-9.15-3H30c-.06-9.11-.46-34.43-2.77-49.5H5.77C3.36,23.28,3.05,50.36,3,57h7.64L15,16.34a1.5,1.5,0,0,1,3,0Z"/>
      <path class="pants-1" d="M3.75,13.47l-.18-3A4.46,4.46,0,0,0,7,9.09a3.83,3.83,0,0,0,.54-2.77l2.92-.65a6.68,6.68,0,0,1-1,5.2C8.23,12.44,6.33,13.31,3.75,13.47Z"/>
      <path class="pants-1" d="M29.23,13.47c-2.58-.16-4.48-1-5.65-2.6a6.73,6.73,0,0,1-1-5.2l2.92.66L24,6l1.47.32A3.78,3.78,0,0,0,26,9.09a4.42,4.42,0,0,0,3.41,1.39Z"/>
      <path class="pants-1" d="M16.49,18H15a1.5,1.5,0,0,1-1.5-1.5V6A1.5,1.5,0,0,1,15,4.5h4.5A1.5,1.5,0,0,1,21,6v7.5A4.51,4.51,0,0,1,16.49,18Zm0-10.5V15A1.5,1.5,0,0,0,18,13.5v-6Z"/>
      <rect class="pants-1" x="1.53" y="52.5" width="10.94" height="3"/>
      <rect class="pants-1" x="20.51" y="52.5" width="10.94" height="3"/>
    </g>
  </g>
</svg>
