<svg xmlns="http://www.w3.org/2000/svg" viewBox="0 0 54 55.5">
  <defs>
    <style>
      .tee-1 {
        fill: #22b573;
      }
    </style>
  </defs>
  <g id="FG">
    <g>
      <path class="tee-1" d="M27,55.5a37.62,37.62,0,0,1-15.67-3.16A1.49,1.49,0,0,1,10.5,51V28.13L1.09,25.44a1.51,1.51,0,0,1-1-1.84L3.9,9.73a7.56,7.56,0,0,1,4-4.9C14.67,1.49,20.56,0,27,0S39.33,1.49,46.1,4.83a7.59,7.59,0,0,1,4,4.92L54,23.6a1.5,1.5,0,0,1-1,1.84L43.5,28.13V51a1.49,1.49,0,0,1-.83,1.34A37.62,37.62,0,0,1,27,55.5ZM13.5,50A37.1,37.1,0,0,0,27,52.5,37.1,37.1,0,0,0,40.5,50V27a1.49,1.49,0,0,1,1.09-1.44L50.66,23,47.21,10.53v0a4.56,4.56,0,0,0-2.43-3C38.44,4.4,33,3,27,3S15.56,4.4,9.23,7.52a4.59,4.59,0,0,0-2.43,3L3.34,23l9.07,2.59A1.49,1.49,0,0,1,13.5,27Z"/>
      <path class="tee-1" d="M27,9c-4.85,0-9-3.3-9-6a2.48,2.48,0,0,1,1-2l1.8,2.39A.49.49,0,0,0,21,3c.11.76,2.62,3,6,3s5.89-2.24,6-3a.52.52,0,0,0,.18.39L35,1a2.5,2.5,0,0,1,1,2C36,5.7,31.85,9,27,9Z"/>
      <path class="tee-1" d="M12,28.5A1.5,1.5,0,0,1,10.5,27V19.5a1.5,1.5,0,0,1,3,0V27A1.5,1.5,0,0,1,12,28.5Z"/>
      <path class="tee-1" d="M42,28.5A1.5,1.5,0,0,1,40.5,27V19.5a1.5,1.5,0,0,1,3,0V27A1.5,1.5,0,0,1,42,28.5Z"/>
    </g>
  </g>
</svg>
