<svg xmlns="http://www.w3.org/2000/svg" viewBox="0 0 30 30">
  <defs>
    <style>
      .close-1 {
        fill: #7f7f7f;
      }
    </style>
  </defs>
  <g id="FG">
    <path class="close-1" d="M15,0a14.93,14.93,0,0,1,4,.53,15.26,15.26,0,0,1,3.59,1.52A15.29,15.29,0,0,1,28,7.43,15.26,15.26,0,0,1,29.47,11a15.21,15.21,0,0,1,0,8A15.26,15.26,0,0,1,28,22.57,15.29,15.29,0,0,1,22.57,28,15.26,15.26,0,0,1,19,29.47a15.21,15.21,0,0,1-8,0A15.26,15.26,0,0,1,7.43,28a15.29,15.29,0,0,1-5.38-5.38A15.26,15.26,0,0,1,.53,19a15.21,15.21,0,0,1,0-8A15.26,15.26,0,0,1,2.05,7.43,15.29,15.29,0,0,1,7.43,2.05,15.26,15.26,0,0,1,11,.53,14.93,14.93,0,0,1,15,0Zm0,28.12a13,13,0,0,0,3.49-.46,13.48,13.48,0,0,0,3.14-1.33,13.23,13.23,0,0,0,4.7-4.7,13.48,13.48,0,0,0,1.33-3.14,13.47,13.47,0,0,0,0-7,13.48,13.48,0,0,0-1.33-3.14,13.23,13.23,0,0,0-4.7-4.7,13.48,13.48,0,0,0-3.14-1.33,13.47,13.47,0,0,0-7,0A13.48,13.48,0,0,0,8.37,3.67a13.23,13.23,0,0,0-4.7,4.7,13.48,13.48,0,0,0-1.33,3.14,13.47,13.47,0,0,0,0,7,13.48,13.48,0,0,0,1.33,3.14,13.23,13.23,0,0,0,4.7,4.7,13.48,13.48,0,0,0,3.14,1.33A13,13,0,0,0,15,28.12ZM21.49,9.83,16.33,15l5.16,5.17-1.32,1.32L15,16.33,9.83,21.49,8.51,20.17,13.67,15,8.51,9.83,9.83,8.51,15,13.67l5.17-5.16Z"/>
  </g>
</svg>
