<svg xmlns="http://www.w3.org/2000/svg" viewBox="0 0 25.08 25.08">
  <defs>
    <style>
      .his-1 {
        fill: #fff;
      }
    </style>
  </defs>
  <g id="Overlay">
    <g>
      <path class="his-1" d="M12.54,6.27V13L17,17.48l-1.1,1.1L11,13.66V6.27Z"/>
      <path class="his-1" d="M12.54,0a12.28,12.28,0,0,1,3.33.45,12.86,12.86,0,0,1,3,1.26,13,13,0,0,1,2.53,2,12.44,12.44,0,0,1,2,2.54,12.63,12.63,0,0,1,1.27,9.65,12.89,12.89,0,0,1-1.27,3,13,13,0,0,1-4.5,4.5,12.89,12.89,0,0,1-3,1.27,12.75,12.75,0,0,1-6.07.14,13,13,0,0,1-2.55-.88A12.73,12.73,0,0,1,3,20.67a12.71,12.71,0,0,1-1.52-2.23,11.59,11.59,0,0,1-1-2.56L2,15.47a10.9,10.9,0,0,0,1.51,3.26A11.46,11.46,0,0,0,5.9,21.27,11.28,11.28,0,0,0,9,22.93a10.95,10.95,0,0,0,11.29-2.64A10.92,10.92,0,0,0,22,7a10.83,10.83,0,0,0-1.72-2.22,11.19,11.19,0,0,0-2.22-1.72A10.87,10.87,0,0,0,15.45,2a10.76,10.76,0,0,0-2.91-.39A11,11,0,0,0,4.38,5.25,10.58,10.58,0,0,0,2.67,7.84h3.6V9.41H0V3.14H1.57V6.5a12.28,12.28,0,0,1,2-2.7A12.59,12.59,0,0,1,9.21.45,12.38,12.38,0,0,1,12.54,0Z"/>
    </g>
  </g>
</svg>
