<svg xmlns="http://www.w3.org/2000/svg" viewBox="0 0 55.96 33.98">
  <defs>
    <style>
      .shoe-1 {
        fill: #22b573;
      }
    </style>
  </defs>
  <g id="FG">
    <g>
      <path class="shoe-1" d="M25.7,34c-4.16,0-8.91-.09-14.34-.31h0c-.81,0-8-.13-10.52-4.19-1.19-1.92-1.1-4.27.25-7A1.52,1.52,0,0,1,2,21.73a1.5,1.5,0,0,1,1.17.15c.13.07,8,4.29,36.74,4.29.09,0,8.61,0,12.67-2.74a1.49,1.49,0,0,1,2,.26,5.66,5.66,0,0,1,1.39,3.86,4,4,0,0,1-1.54,2.77C53.45,31.15,48.53,34,25.7,34ZM3.23,25.16a3.28,3.28,0,0,0,.15,2.75c1.4,2.26,6.4,2.76,8,2.76,35.27,1.41,40.81-2.47,41-2.63a1.1,1.1,0,0,0,.5-.76,1.43,1.43,0,0,0-.08-.57c-5,2.43-12.59,2.46-12.95,2.46C16.72,29.17,6.73,26.48,3.23,25.16Z"/>
      <path class="shoe-1" d="M54.85,25.15,52,24.2a2.25,2.25,0,0,0-.08-1.88c-.69-1.27-2.66-2-3.36-2.19C37.82,17.06,27.39,8.19,27,7.81L22.36,3.23c-.45-.42-.71-.16-.88,0l-3,3c-.42.46-.16.72,0,.88l2.44,2.44L18.8,11.67,16.36,9.23a3.52,3.52,0,0,1,0-5.12l3-3a3.52,3.52,0,0,1,5.12,0L29,5.61s10.3,8.75,20.36,11.62c.33.09,3.76,1,5.2,3.64A5.24,5.24,0,0,1,54.85,25.15Z"/>
      <path class="shoe-1" d="M23.42,15.67a1.48,1.48,0,0,1-1.06-.44,1.51,1.51,0,0,1,0-2.12L28.52,7a1.51,1.51,0,0,1,2.12,0,1.49,1.49,0,0,1,0,2.12l-6.16,6.16A1.45,1.45,0,0,1,23.42,15.67Z"/>
      <path class="shoe-1" d="M27.92,18.67a1.48,1.48,0,0,1-1.06-.44,1.51,1.51,0,0,1,0-2.12l6-6A1.5,1.5,0,0,1,35,12.23l-6,6A1.45,1.45,0,0,1,27.92,18.67Z"/>
      <path class="shoe-1" d="M28,27.8l-2.85-.94c1.18-3.54,5.42-7.54,7.79-9.56L22.33,10.24c-2.29,2.75-6.67,5-7.24,5.28-2.91,1.17-5.21,1.14-6.95,0a5.64,5.64,0,0,1-1.91-2.31C4,17.4,3.92,23.11,3.92,23.18h-3c0-.39.06-9.67,4.94-14.56A1.51,1.51,0,0,1,7.5,8.29a1.49,1.49,0,0,1,.92,1.38c0,.67.28,2.57,1.41,3.33s2.79.28,4-.22c2-1,5.78-3.42,6.71-5.28a1.5,1.5,0,0,1,2.18-.57l13.5,9a1.46,1.46,0,0,1,.66,1.19,1.48,1.48,0,0,1-.58,1.24C34.39,19.86,29.08,24.48,28,27.8Z"/>
    </g>
  </g>
</svg>
