<svg xmlns="http://www.w3.org/2000/svg" viewBox="0 0 48 48">
  <defs>
    <style>
      .nav1-1 {
        fill: #fff;
      }
    </style>
  </defs>
  <g id="FG">
    <path class="nav1-1" d="M24,0a23.14,23.14,0,0,1,6.36.87A24.1,24.1,0,0,1,47.13,17.64a23.68,23.68,0,0,1,0,12.72A24.1,24.1,0,0,1,30.36,47.13a23.68,23.68,0,0,1-12.72,0A24.1,24.1,0,0,1,.87,30.36a23.68,23.68,0,0,1,0-12.72A24.1,24.1,0,0,1,17.64.87,23.14,23.14,0,0,1,24,0Zm0,45a20.45,20.45,0,0,0,5.23-.68,21.84,21.84,0,0,0,4.84-1.93,21.27,21.27,0,0,0,4.22-3,22.1,22.1,0,0,0,3.38-4c-.2-.47-.4-.94-.58-1.43a4,4,0,0,1-.29-1.5A8.44,8.44,0,0,1,40.89,31q.07-.52.15-.9a6.75,6.75,0,0,0,.1-.69,1.7,1.7,0,0,0-.08-.72,5.36,5.36,0,0,0-.41-1c-.19-.37-.48-.86-.85-1.45a4.4,4.4,0,0,1,.08-.45,3.68,3.68,0,0,0,.08-.58,3.8,3.8,0,0,0,0-.58,1,1,0,0,0-.1-.43A9.38,9.38,0,0,1,38.59,24a3.3,3.3,0,0,1-1.16-.56l.14-.12a3.62,3.62,0,0,0-.61.2l-.6.25a5.8,5.8,0,0,1-.59.19,2.3,2.3,0,0,1-.64.09L34.76,24l.07-.16c-.22.06-.46.14-.72.23a1.68,1.68,0,0,1-1.39,0,8.85,8.85,0,0,1-.9-.4,4.42,4.42,0,0,1-.8-.52.72.72,0,0,1-.34-.54l.05-.07a1.13,1.13,0,0,0-.31-.25L30.06,22a1.05,1.05,0,0,1-.29-.26.47.47,0,0,1-.12-.32l.26-.22-.54-.07-.19-.7c0,.08.11.11.22.09a.39.39,0,0,0,.25-.09L28.8,20l.59-1.5a3.8,3.8,0,0,1-.15-1.88,2.31,2.31,0,0,1,.62-1.09,7.6,7.6,0,0,1,1-.84A5.12,5.12,0,0,0,32,13.57L32,13.29l1.55-1.88.35,0c.43,0,.93,0,1.47-.06s1.11-.1,1.67-.17,1.11-.14,1.66-.23,1-.18,1.5-.29a21.17,21.17,0,0,0-1.58-1.69c-.55-.53-1.14-1-1.75-1.52-.17.06-.38.15-.64.27a3.9,3.9,0,0,0-.74.42,3.17,3.17,0,0,0-.6.55,1,1,0,0,0-.24.63l.14.45a1.91,1.91,0,0,1-.94.85,3.49,3.49,0,0,1-1.07.19c-.36,0-.74,0-1.12,0a2.39,2.39,0,0,0-1.11.21l-.38-.8.35-1.36-.4-.58L34.15,7a1.84,1.84,0,0,0-.86-1A2.59,2.59,0,0,0,32,5.65V5.41l1.31-.21a21.61,21.61,0,0,0-4.54-1.64A20.84,20.84,0,0,0,24,3a20.18,20.18,0,0,0-4,.4,20.68,20.68,0,0,0-3.86,1.16,22.43,22.43,0,0,0-3.57,1.86A19.81,19.81,0,0,0,9.38,9a1.32,1.32,0,0,1,.94.32,4.87,4.87,0,0,1,.61.68,6.3,6.3,0,0,0,.58.68,1.08,1.08,0,0,0,.82.32l.37-.29,0-.51.77-1.1-.61-1.74a3.69,3.69,0,0,0,.36-.23.85.85,0,0,1,.39-.17A7.31,7.31,0,0,1,14.66,7a1.5,1.5,0,0,1,.64.27,2.62,2.62,0,0,1,.5.54c.15.23.37.52.65.88L17.3,8l.76.31a9.17,9.17,0,0,1,1,.52,5.9,5.9,0,0,1,.92.62.88.88,0,0,1,.39.61.68.68,0,0,1-.27.56,2.29,2.29,0,0,1-.66.35,4.53,4.53,0,0,1-.88.22l-.88.18a2.69,2.69,0,0,0-.68.25.44.44,0,0,0-.28.38l1.36.45a11.09,11.09,0,0,1-1,.74A10.93,10.93,0,0,1,16,13.8l.1.4-2.16.85v.65l-.16.07.12-.82-.1,0c-.11,0-.17,0-.2.07a.22.22,0,0,0,0,.16l.06.19c0,.06,0,.11,0,.14l-.3-.16,0,.09a.51.51,0,0,0,.08.21,1.85,1.85,0,0,0,.19.27l.27.34a.17.17,0,0,1-.1.14,1,1,0,0,1-.23.11l-.18.06c-.05,0-.05,0,0,0,.21,0,.26,0,.13.05a2.94,2.94,0,0,0-.58.23,3,3,0,0,0-.74.55,1.38,1.38,0,0,0-.36,1q0,.41,0,.78a2.51,2.51,0,0,1,0,.77,2.86,2.86,0,0,0-1-1.36,2.7,2.7,0,0,0-1.6-.47l-1,.09.5.33-.84-.09a4,4,0,0,0-.85,0,2.8,2.8,0,0,0-.81.18,2,2,0,0,0-.69.48l-.14,1.06a2.06,2.06,0,0,0,.34,1.23,1.28,1.28,0,0,0,1.13.48,4.44,4.44,0,0,0,1.39-.22c.45-.15.9-.31,1.33-.48a9,9,0,0,1-.47,1,4,4,0,0,0-.37,1l.3.14a.93.93,0,0,1,1-.11A3.45,3.45,0,0,1,11,24c.3.32.6.66.91,1a2.7,2.7,0,0,0,1,.73l-.8.43L10.29,25.1l.06.21c0,.11,0,.14,0,.07L9.47,24a6.9,6.9,0,0,1-1.61-.24,14.14,14.14,0,0,1-1.7-.57,13.35,13.35,0,0,1-1.62-.77,10.65,10.65,0,0,1-1.38-.88L3,24a20.48,20.48,0,0,0,.77,5.58A22.07,22.07,0,0,0,6,34.69,21.51,21.51,0,0,0,9.4,39.06a20.12,20.12,0,0,0,4.52,3.34,2.36,2.36,0,0,1,0-1,9.31,9.31,0,0,1,.24-1c.11-.33.21-.66.31-1a3.4,3.4,0,0,0,.15-1,6,6,0,0,0-.23-1.58,15.77,15.77,0,0,0-.58-1.67c-.22-.55-.46-1.1-.71-1.65s-.47-1.07-.65-1.56a6.73,6.73,0,0,1-.36-1.36,1.78,1.78,0,0,1,.14-1.09l-.35-.16a2.56,2.56,0,0,1,.39-.64l.48-.62a3.92,3.92,0,0,0,.39-.64,1.54,1.54,0,0,0,.17-.7,1.42,1.42,0,0,0-.11-.51,3.2,3.2,0,0,1-.15-.48l.49.12a2.42,2.42,0,0,1,1.09-1.26,3.93,3.93,0,0,1,1.7-.34,2.51,2.51,0,0,1,.49.11c.25.07.52.15.8.25l.81.27.55.17a.22.22,0,0,0,.2.22c.13,0,.2.09.2.16l-.05.18.34.18c.18.1.37.21.56.34a6.31,6.31,0,0,1,.54.37l.32.26a3.71,3.71,0,0,1,1.16.28,16.19,16.19,0,0,1,1.58.72,17.54,17.54,0,0,1,1.73,1A15.8,15.8,0,0,1,27.12,30a9.08,9.08,0,0,1,1.16,1.17,1.73,1.73,0,0,1,.45,1l-.79.84a4.12,4.12,0,0,1-.18,1.84,2.46,2.46,0,0,1-.8,1,5.83,5.83,0,0,1-1.24.7,11.2,11.2,0,0,0-1.51.8,2.75,2.75,0,0,1-.23,1,5.32,5.32,0,0,1-.6,1,3.58,3.58,0,0,1-.84.81,1.81,1.81,0,0,1-1,.32l-1-.75s0,.09,0,.18-.08.1-.11,0a1.51,1.51,0,0,1,.12,1,5.21,5.21,0,0,1-.4,1.19,10.72,10.72,0,0,1-.63,1.16,10,10,0,0,1-.64.9,20.72,20.72,0,0,0,2.54.5A19.62,19.62,0,0,0,24,45ZM11.62,20.7a2.49,2.49,0,0,1,.68.1c.25.07.51.15.77.25s.5.19.75.3l.66.28-.38.05a2.61,2.61,0,0,1-.39,0,1.93,1.93,0,0,1-.73-.13,5,5,0,0,1-.62-.29A6,6,0,0,0,11.8,21a1.13,1.13,0,0,0-.5-.13.93.93,0,0,0-.42.09l-.38.21c0-.06-.05-.09-.16-.09A1.29,1.29,0,0,1,11,20.8,3.07,3.07,0,0,1,11.62,20.7Zm3.17,1.05a4.56,4.56,0,0,1,1.76.33c-.22.08-.44.14-.66.2a3,3,0,0,1-.68.08,3.61,3.61,0,0,1-.84-.09A.63.63,0,0,1,14.6,22,.45.45,0,0,0,14.79,21.75Zm25.45-11a.35.35,0,0,1-.07.26h.14l.14,0ZM41.86,13c-.22-.35-.44-.68-.66-1s-.44-.63-.68-.95a.69.69,0,0,1-.13.31.74.74,0,0,0-.08.42.61.61,0,0,0,.18.41,2.48,2.48,0,0,0,.42.36,2.76,2.76,0,0,0,.5.28A2.63,2.63,0,0,0,41.86,13Z"/>
  </g>
</svg>
