<svg xmlns="http://www.w3.org/2000/svg" viewBox="0 0 48 33">
  <defs>
    <style>
      .nav5-1 {
        fill: #fff;
      }
    </style>
  </defs>
  <g id="FG">
    <path class="nav5-1" d="M3,3V24H21v3H0V0H45V3ZM15,30h6v3H15Zm33-9V33H24V21Zm-2.46-8A13.6,13.6,0,0,0,41.17,10,13.25,13.25,0,0,0,36,9a13.43,13.43,0,0,0-5.17,1A13.16,13.16,0,0,0,26.46,13l-2.13-2.13a16.49,16.49,0,0,1,23.34,0ZM45,24H27v6H45ZM28.57,15.07A10.77,10.77,0,0,1,32,12.8a10.5,10.5,0,0,1,8,0,10.77,10.77,0,0,1,3.41,2.27L41.3,17.2a7.69,7.69,0,0,0-2.43-1.63,7.51,7.51,0,0,0-5.74,0A7.69,7.69,0,0,0,30.7,17.2Z"/>
  </g>
</svg>
