<svg xmlns="http://www.w3.org/2000/svg" viewBox="0 0 50 50">
  <defs>
    <style>
      .orde-1 {
        fill: transparent;
      }

      .orde-2 {
        fill: #fff;
      }
    </style>
  </defs>
  <g id="FG">
    <rect class="orde-1" width="50" height="50"/>
    <g>
      <path class="orde-2" d="M45,15.56l0-.08a1.11,1.11,0,0,0-.07-.16l-.07-.09-.1-.12L44.6,15,44.52,15l-.05,0,0,0L33.35,9.47l-1.43-.72-.09,0L25.38,5.55a1,1,0,0,0-.91,0L5.85,14.84a1,1,0,0,0-.37.13,1,1,0,0,0-.48.87V34.16a1,1,0,0,0,.57.92l18.9,9.37.12,0,.08,0a.83.83,0,0,0,.51,0l.08,0,.12,0,19.05-9.37a1,1,0,0,0,.57-.92V15.84A.86.86,0,0,0,45,15.56ZM32.44,11.29l1.51.76L17,20.13l-2.51-1.25,17-8.07ZM13.15,20.54l2.77,1.37v3.15l-2.77-1.39Zm18.94,0-7.16,3.52L19.3,21.28l17-8.09,5.37,2.65ZM24.93,7.6l4.18,2.06-17,8.07L8.37,15.86ZM7,17.53l4.07,2V24.3a1,1,0,0,0,.56.92l4.82,2.4a.91.91,0,0,0,.45.11,1,1,0,0,0,.54-.15,1,1,0,0,0,.48-.87v-3.8l5.95,2.93V41.89L7,33.53ZM43,33.53,26,41.9V25.84l17-8.37Z"/>
      <path class="orde-2" d="M29.19,37.75a1,1,0,0,0,.54.16,1,1,0,0,0,.44-.1L40,33.19a1,1,0,0,0,.59-.93l-.13-9.49a1,1,0,0,0-.48-.85,1,1,0,0,0-1-.05l-3.84,1.85a1,1,0,1,0,.89,1.83l2.39-1.15.1,7.23-7.79,3.65V28.36l1.53-.73a1,1,0,0,0,.56-1.07,1,1,0,0,0,.69.29,1.06,1.06,0,0,0,.31-.05l.17-.05a1,1,0,1,0-.62-1.94l-.16.05a1,1,0,0,0-.71,1.1,1,1,0,0,0-1.12-.17l-2.11,1a1,1,0,0,0-.58.92v9.18A1,1,0,0,0,29.19,37.75Z"/>
    </g>
  </g>
</svg>
