<svg xmlns="http://www.w3.org/2000/svg" viewBox="0 0 64 64">
  <defs>
    <style>
      .mat-1 {
        fill: #fff;
      }
    </style>
  </defs>
  <g id="FG">
    <path class="mat-1" d="M37.87,9.42a18.2,18.2,0,0,0-8.17,1.94,17.46,17.46,0,0,0-3.49,2.31,19.26,19.26,0,0,0-2.65,2.76,10.6,10.6,0,0,0-2.09-.8,10.86,10.86,0,0,0-2.67-.34H8V26.06a10.57,10.57,0,0,0,.84,4.2A10.71,10.71,0,0,0,22,36.31c.26.46.53.91.82,1.33a12.3,12.3,0,0,0,.92,1.23L10.82,51.81l2.77,2.77L26.53,41.64a16.86,16.86,0,0,0,5.09,2.91A18.11,18.11,0,0,0,47,43.16a18.08,18.08,0,0,0,6.5-6.5,18.58,18.58,0,0,0,1.83-4.32A17.78,17.78,0,0,0,56,27.53V9.42Zm7.61,13.27-2.77-2.77L26.54,36.06a14.06,14.06,0,0,1-2.84-8.53,13.82,13.82,0,0,1,.51-3.76,14,14,0,0,1,3.64-6.26,14,14,0,0,1,2.87-2.21,14.39,14.39,0,0,1,3.39-1.43,13.76,13.76,0,0,1,3.76-.51H52V27.53a13.82,13.82,0,0,1-.51,3.76,14.39,14.39,0,0,1-1.43,3.39,14,14,0,0,1-2.21,2.87,14.22,14.22,0,0,1-14.78,3.34,13.66,13.66,0,0,1-3.77-2ZM20,24.5l-3.13-3.11-2.77,2.77L19.93,30a18.6,18.6,0,0,0,.58,2.7,6.53,6.53,0,0,1-4.37-.3A6.68,6.68,0,0,1,14,30.9a6.87,6.87,0,0,1-1.47-2.18A6.79,6.79,0,0,1,12,26.06V19.23H18.8a6.58,6.58,0,0,1,2.7.57,18.67,18.67,0,0,0-1,2.54A19.39,19.39,0,0,0,20,24.5Z"/>
  </g>
</svg>
