<svg xmlns="http://www.w3.org/2000/svg" viewBox="0 0 64 64">
  <defs>
    <style>
      .shop-1 {
        fill: #fff;
      }
    </style>
  </defs>
  <g id="FG">
    <g>
      <polygon class="shop-1" points="54.27 55.79 9.73 55.79 9.73 32.38 13.73 32.38 13.73 51.79 50.27 51.79 50.27 32.38 54.27 32.38 54.27 55.79"/>
      <g>
        <path class="shop-1" d="M13.88,35.12A7.87,7.87,0,0,1,6.45,24.67L12.2,8.21h13l-3.56,20.4A7.86,7.86,0,0,1,13.88,35.12ZM15,12.21,10.23,26a3.86,3.86,0,0,0,3.65,5.14,3.86,3.86,0,0,0,3.81-3.2l2.74-15.71Z"/>
        <path class="shop-1" d="M26,35.12a8,8,0,0,1-7.91-9.4L21.13,8.21H34V27.1A8,8,0,0,1,26,35.12ZM24.49,12.21,22,26.41a4,4,0,1,0,8,.69V12.21Z"/>
        <path class="shop-1" d="M38,35.12a8,8,0,0,1-8-8V8.21H42.87l3.06,17.51A8,8,0,0,1,38,35.12ZM34,12.21V27.1a4,4,0,1,0,8-.69l-2.48-14.2Z"/>
        <path class="shop-1" d="M50.12,35.12a7.86,7.86,0,0,1-7.75-6.51L38.81,8.21h13l5.75,16.46a7.87,7.87,0,0,1-7.43,10.45ZM43.57,12.21l2.74,15.71a3.86,3.86,0,0,0,3.81,3.2A3.86,3.86,0,0,0,53.77,26L49,12.21Z"/>
      </g>
      <path class="shop-1" d="M46.05,55.79H18v-20h28.1Zm-24.1-4h20.1v-12H22Z"/>
    </g>
  </g>
</svg>
