<svg xmlns="http://www.w3.org/2000/svg" xmlns:xlink="http://www.w3.org/1999/xlink" viewBox="0 0 188 201.96">
  <defs>
    <style>
      .storeroom-1, .storeroom-28 {
        fill: #d8d8d8;
      }

      .storeroom-1, .storeroom-15, .storeroom-16, .storeroom-17, .storeroom-18, .storeroom-19, .storeroom-2, .storeroom-24, .storeroom-25, .storeroom-26, .storeroom-3, .storeroom-31, .storeroom-4, .storeroom-5 {
        fill-rule: evenodd;
      }

      .storeroom-2 {
        fill: #999;
        opacity: 0.4;
      }

      .storeroom-3, .storeroom-30 {
        fill: #aab2b2;
      }

      .storeroom-4 {
        fill: url(#GradientFill_248);
      }

      .storeroom-5 {
        fill: #e0d5c9;
      }

      .storeroom-6 {
        fill: url(#linear-gradient);
      }

      .storeroom-7 {
        fill: url(#linear-gradient-2);
      }

      .storeroom-8 {
        fill: #1a8856;
      }

      .storeroom-9 {
        fill: #998675;
      }

      .storeroom-10 {
        fill: none;
        stroke: #22b573;
        stroke-miterlimit: 10;
        stroke-width: 0.25px;
      }

      .storeroom-11 {
        fill: url(#linear-gradient-3);
      }

      .storeroom-12 {
        fill: #1a1a1a;
      }

      .storeroom-13 {
        fill: url(#linear-gradient-4);
      }

      .storeroom-14 {
        fill: url(#linear-gradient-5);
      }

      .storeroom-15, .storeroom-29 {
        fill: #cccecd;
      }

      .storeroom-16 {
        fill: #ebebeb;
      }

      .storeroom-17 {
        fill: #bdbeb7;
      }

      .storeroom-18 {
        fill: #d1d1d1;
      }

      .storeroom-19 {
        fill: url(#GradientFill_106);
      }

      .storeroom-20 {
        fill: #78909c;
      }

      .storeroom-21 {
        fill: #90a4ae;
      }

      .storeroom-22 {
        fill: #b0bec5;
      }

      .storeroom-23 {
        fill: #f5f5f5;
      }

      .storeroom-24 {
        fill: #bab1a0;
      }

      .storeroom-25 {
        fill: url(#GradientFill_106-2);
      }

      .storeroom-26 {
        fill: #b3b3b3;
      }

      .storeroom-27 {
        fill: #808585;
      }

      .storeroom-31 {
        fill: url(#GradientFill_248-2);
      }
    </style>
    <linearGradient id="GradientFill_248" data-name="GradientFill 248" x1="5628.89" y1="115.58" x2="5634.97" y2="115.58" gradientTransform="matrix(-1, 0, 0, 1, 5801.06, 0)" gradientUnits="userSpaceOnUse">
      <stop offset="0" stop-color="#b6a49c"/>
      <stop offset="1" stop-color="#555050"/>
    </linearGradient>
    <linearGradient id="linear-gradient" x1="92.41" y1="100.33" x2="121.93" y2="100.33" gradientUnits="userSpaceOnUse">
      <stop offset="0" stop-color="#006837"/>
      <stop offset="1" stop-color="#22b573"/>
    </linearGradient>
    <linearGradient id="linear-gradient-2" x1="114.73" y1="112.35" x2="144.25" y2="112.35" xlink:href="#linear-gradient"/>
    <linearGradient id="linear-gradient-3" x1="137.92" y1="123.12" x2="167.44" y2="123.12" xlink:href="#linear-gradient"/>
    <linearGradient id="linear-gradient-4" x1="114.22" y1="137.49" x2="143.74" y2="137.49" xlink:href="#linear-gradient"/>
    <linearGradient id="linear-gradient-5" x1="90.51" y1="151.86" x2="120.03" y2="151.86" xlink:href="#linear-gradient"/>
    <linearGradient id="GradientFill_106" data-name="GradientFill 106" x1="-10977.23" y1="31.14" x2="-10971.2" y2="57.23" gradientTransform="translate(11072.15)" gradientUnits="userSpaceOnUse">
      <stop offset="0" stop-color="#745f60"/>
      <stop offset="1" stop-color="#644a4a"/>
    </linearGradient>
    <linearGradient id="GradientFill_106-2" x1="-11023.89" y1="58.15" x2="-11017.87" y2="84.24" xlink:href="#GradientFill_106"/>
    <linearGradient id="GradientFill_248-2" x1="5694.46" y1="152.32" x2="5700.54" y2="152.32" xlink:href="#GradientFill_248"/>
  </defs>
  <g id="Overlay">
    <g>
      <g>
        <g>
          <g>
            <polygon class="storeroom-1" points="169.92 77.78 169.92 57.76 188 47.32 188 140.86 169.92 151.29 169.92 77.78"/>
            <polygon class="storeroom-2" points="82.16 114.14 82.16 178.95 128.07 152.44 167.93 152.44 171.56 152.44 171.56 78.72 128.07 91.79 82.16 114.14"/>
            <polygon class="storeroom-3" points="171.56 135.96 171.56 78.72 128.07 91.79 117.55 104.78 171.56 135.96"/>
            <polygon class="storeroom-4" points="169.92 79.67 169.92 151.5 171.56 152.44 171.56 78.72 169.92 79.67"/>
            <polygon class="storeroom-5" points="169.92 77.51 173.29 75.57 173.29 151.29 171.56 152.29 171.56 78.56 169.92 79.51 169.92 77.51"/>
          </g>
          <g>
            <g>
              <path class="storeroom-6" d="M97.66,128.73c6.11,3.27,15.34,2.73,20.66-1.24,2.41-1.8,3.59-4,3.6-6.16h0l-.18-51.53h0c0,2.21-1.13,4.46-3.59,6.3-5.32,4-14.56,4.5-20.66,1.24-3.45-1.84-5.17-4.51-5.06-7.19h0l.18,51.39h0C92.49,124.22,94.21,126.89,97.66,128.73Z"/>
              <path class="storeroom-7" d="M120,140.75c6.11,3.26,15.35,2.73,20.66-1.25,2.41-1.8,3.59-4,3.6-6.16h0l-.19-51.53h0c0,2.21-1.14,4.46-3.6,6.3-5.32,4-14.55,4.51-20.66,1.24-3.45-1.84-5.16-4.5-5.06-7.18h0l.18,51.38h0C114.8,136.24,116.52,138.9,120,140.75Z"/>
              <g>
                <g>
                  <path class="storeroom-8" d="M143,100.13c-6.15-3.29-6.79-9.17-1.4-13.15s14.57-4.53,20.66-1.24,6.72,9.18,1.41,13.15S149.09,103.4,143,100.13Z"/>
                  <path class="storeroom-9" d="M150.35,94.63c-1.42-.76-1.57-2.13-.32-3a4.89,4.89,0,0,1,4.79-.29c1.41.76,1.56,2.13.32,3A4.86,4.86,0,0,1,150.35,94.63Z"/>
                  <path class="storeroom-10" d="M143.78,99.53c-5.63-3-6.23-8.41-1.28-12s13.36-4.16,18.94-1.14,6.16,8.41,1.28,12S149.38,102.53,143.78,99.53Z"/>
                  <path class="storeroom-10" d="M144.59,98.93c-5.13-2.74-5.67-7.65-1.17-11s12.14-3.77,17.22-1,5.6,7.64,1.16,11S149.67,101.65,144.59,98.93Z"/>
                  <path class="storeroom-10" d="M145.39,98.33c-4.62-2.46-5.1-6.88-1-9.86s10.92-3.4,15.49-.93,5,6.88,1,9.86S150,100.78,145.39,98.33Z"/>
                  <path class="storeroom-10" d="M146.19,97.73c-4.1-2.19-4.53-6.12-.94-8.77s9.72-3,13.78-.83,4.48,6.12.93,8.77S150.26,99.91,146.19,97.73Z"/>
                  <path class="storeroom-10" d="M147,97.13c-3.59-1.92-4-5.35-.82-7.67a12.28,12.28,0,0,1,12.05-.73c3.56,1.92,3.92,5.36.82,7.68S150.55,99,147,97.13Z"/>
                  <path class="storeroom-10" d="M147.79,96.53c-3.07-1.64-3.4-4.59-.7-6.58a10.55,10.55,0,0,1,10.33-.62c3.05,1.65,3.36,4.59.7,6.58A10.5,10.5,0,0,1,147.79,96.53Z"/>
                  <path class="storeroom-10" d="M148.59,95.93c-2.56-1.37-2.83-3.82-.58-5.48a8.77,8.77,0,0,1,8.61-.52c2.54,1.37,2.8,3.83.58,5.48A8.74,8.74,0,0,1,148.59,95.93Z"/>
                  <path class="storeroom-10" d="M149.39,95.33c-2-1.1-2.26-3.06-.46-4.38a7,7,0,0,1,6.88-.42c2,1.1,2.24,3.06.47,4.38A7,7,0,0,1,149.39,95.33Z"/>
                  <path class="storeroom-10" d="M150.19,94.73c-1.53-.82-1.7-2.3-.35-3.29a5.29,5.29,0,0,1,5.17-.31c1.52.82,1.68,2.29.35,3.29A5.28,5.28,0,0,1,150.19,94.73Z"/>
                </g>
                <path class="storeroom-11" d="M143.17,151.52c6.1,3.27,15.34,2.74,20.66-1.24,2.41-1.8,3.58-4,3.6-6.16h0l-.19-51.53h0c0,2.21-1.13,4.46-3.59,6.3-5.32,4-14.56,4.51-20.67,1.24-3.45-1.84-5.16-4.5-5.06-7.18h0l.19,51.38h0C138,147,139.71,149.68,143.17,151.52Z"/>
                <path class="storeroom-12" d="M151,94.16a1.2,1.2,0,0,1-.24-2.19,3.5,3.5,0,0,1,3.45-.21,1.21,1.21,0,0,1,.23,2.19A3.48,3.48,0,0,1,151,94.16Z"/>
              </g>
            </g>
            <g>
              <g>
                <path class="storeroom-8" d="M119.28,114.5c-6.15-3.29-6.8-9.17-1.4-13.15s14.57-4.53,20.66-1.24,6.72,9.17,1.4,13.15S125.39,117.77,119.28,114.5Z"/>
                <path class="storeroom-9" d="M126.65,109c-1.43-.76-1.58-2.13-.33-3a4.89,4.89,0,0,1,4.79-.29c1.42.76,1.56,2.13.33,3A4.86,4.86,0,0,1,126.65,109Z"/>
                <path class="storeroom-10" d="M120.08,113.9c-5.64-3-6.23-8.41-1.28-12.05s13.35-4.16,18.94-1.14,6.16,8.41,1.28,12.05S125.68,116.9,120.08,113.9Z"/>
                <path class="storeroom-10" d="M120.88,113.3c-5.12-2.74-5.66-7.65-1.16-11s12.14-3.77,17.21-1,5.6,7.64,1.17,11S126,116,120.88,113.3Z"/>
                <path class="storeroom-10" d="M121.68,112.7c-4.61-2.47-5.09-6.88-1.05-9.86s10.93-3.4,15.5-.94,5,6.89,1.05,9.87S126.26,115.15,121.68,112.7Z"/>
                <path class="storeroom-10" d="M122.49,112.1c-4.1-2.19-4.54-6.12-.94-8.77s9.71-3,13.78-.83,4.48,6.12.93,8.77S126.56,114.28,122.49,112.1Z"/>
                <path class="storeroom-10" d="M123.29,111.5c-3.59-1.92-4-5.35-.82-7.67a12.26,12.26,0,0,1,12.05-.73c3.56,1.92,3.92,5.36.82,7.67S126.85,113.4,123.29,111.5Z"/>
                <path class="storeroom-10" d="M124.09,110.9c-3.08-1.64-3.4-4.59-.7-6.58a10.55,10.55,0,0,1,10.33-.62c3,1.65,3.36,4.59.7,6.58A10.5,10.5,0,0,1,124.09,110.9Z"/>
                <path class="storeroom-10" d="M124.89,110.3c-2.56-1.37-2.83-3.82-.58-5.48a8.75,8.75,0,0,1,8.6-.52c2.54,1.37,2.8,3.82.59,5.48A8.74,8.74,0,0,1,124.89,110.3Z"/>
                <path class="storeroom-10" d="M125.69,109.7c-2-1.1-2.27-3.06-.47-4.39a7,7,0,0,1,6.89-.41c2,1.1,2.24,3.06.47,4.38A7,7,0,0,1,125.69,109.7Z"/>
                <path class="storeroom-10" d="M126.49,109.1c-1.54-.82-1.7-2.3-.35-3.29a5.28,5.28,0,0,1,5.17-.31c1.52.82,1.68,2.29.35,3.29A5.28,5.28,0,0,1,126.49,109.1Z"/>
              </g>
              <path class="storeroom-13" d="M119.46,165.89c6.11,3.27,15.35,2.74,20.66-1.24,2.41-1.8,3.59-4,3.6-6.16h0L143.55,107h0c0,2.21-1.14,4.46-3.6,6.3-5.32,4-14.55,4.51-20.66,1.24-3.45-1.84-5.16-4.5-5.06-7.19h0l.18,51.39h0C114.29,161.38,116,164.05,119.46,165.89Z"/>
              <path class="storeroom-12" d="M127.28,108.53c-1-.55-1.14-1.53-.24-2.19a3.5,3.5,0,0,1,3.45-.21,1.21,1.21,0,0,1,.23,2.19A3.51,3.51,0,0,1,127.28,108.53Z"/>
            </g>
            <g>
              <g>
                <path class="storeroom-8" d="M95.58,128.87c-6.15-3.29-6.8-9.18-1.4-13.15s14.57-4.53,20.66-1.24,6.72,9.17,1.4,13.15S101.68,132.14,95.58,128.87Z"/>
                <path class="storeroom-9" d="M103,123.37c-1.43-.76-1.58-2.13-.33-3.05a4.89,4.89,0,0,1,4.79-.29c1.41.76,1.56,2.13.33,3A4.87,4.87,0,0,1,103,123.37Z"/>
                <path class="storeroom-10" d="M96.38,128.27c-5.64-3-6.23-8.41-1.28-12.05s13.35-4.16,18.93-1.14,6.16,8.41,1.29,12S102,131.26,96.38,128.27Z"/>
                <path class="storeroom-10" d="M97.18,127.67c-5.13-2.74-5.66-7.65-1.17-11s12.14-3.78,17.22-1,5.6,7.64,1.17,11S102.27,130.39,97.18,127.67Z"/>
                <path class="storeroom-10" d="M98,127.07c-4.61-2.47-5.1-6.88-1-9.86s10.93-3.4,15.5-.94,5,6.89,1,9.87S102.56,129.52,98,127.07Z"/>
                <path class="storeroom-10" d="M98.78,126.47c-4.1-2.19-4.53-6.12-.93-8.77s9.71-3,13.77-.83,4.48,6.12.94,8.77S102.85,128.65,98.78,126.47Z"/>
                <path class="storeroom-10" d="M99.58,125.87c-3.58-1.92-4-5.35-.81-7.67a12.26,12.26,0,0,1,12-.73c3.55,1.92,3.92,5.36.82,7.67S103.15,127.77,99.58,125.87Z"/>
                <path class="storeroom-10" d="M100.39,125.27c-3.08-1.65-3.4-4.59-.7-6.58a10.55,10.55,0,0,1,10.33-.62c3,1.65,3.36,4.59.7,6.58A10.5,10.5,0,0,1,100.39,125.27Z"/>
                <path class="storeroom-10" d="M101.19,124.67c-2.57-1.37-2.84-3.83-.59-5.48a8.77,8.77,0,0,1,8.61-.52c2.54,1.37,2.8,3.82.59,5.48A8.74,8.74,0,0,1,101.19,124.67Z"/>
                <path class="storeroom-10" d="M102,124.07c-2-1.1-2.27-3.06-.47-4.39a7,7,0,0,1,6.89-.41c2,1.1,2.24,3.06.47,4.38A7,7,0,0,1,102,124.07Z"/>
                <path class="storeroom-10" d="M102.79,123.47c-1.54-.82-1.7-2.3-.35-3.29a5.27,5.27,0,0,1,5.16-.31c1.53.82,1.68,2.29.35,3.29A5.26,5.26,0,0,1,102.79,123.47Z"/>
              </g>
              <path class="storeroom-14" d="M95.76,180.26c6.11,3.27,15.34,2.74,20.66-1.24,2.41-1.8,3.59-4,3.6-6.16h0l-.18-51.53h0c0,2.21-1.14,4.46-3.6,6.3-5.32,4-14.56,4.51-20.66,1.24-3.45-1.84-5.17-4.5-5.06-7.19h0l.18,51.39h0C90.59,175.75,92.31,178.42,95.76,180.26Z"/>
              <path class="storeroom-12" d="M103.57,122.9a1.2,1.2,0,0,1-.23-2.19,3.49,3.49,0,0,1,3.44-.21,1.21,1.21,0,0,1,.24,2.19A3.53,3.53,0,0,1,103.57,122.9Z"/>
            </g>
          </g>
          <g>
            <g>
              <polygon class="storeroom-1" points="169.92 77.78 106.07 114.64 106.07 188.16 82.16 201.96 82.16 108.42 169.92 57.76 169.92 77.78"/>
              <polygon class="storeroom-5" points="169.92 79.51 107.64 115.47 107.64 189.19 105.91 190.19 105.91 114.47 169.92 77.51 169.92 79.51"/>
            </g>
            <polygon class="storeroom-15" points="188 47.32 82.16 108.5 0 61.18 105.84 0 188 47.32"/>
            <polygon class="storeroom-3" points="0 61.17 82.16 108.5 82.16 201.96 0 154.64 0 61.17"/>
          </g>
          <g>
            <g>
              <g>
                <polygon class="storeroom-16" points="70.45 15.39 96.32 43.25 117.06 18.37 91.18 3.39 70.45 15.39"/>
                <polygon class="storeroom-17" points="70.45 15.39 96.32 30.37 96.32 43.25 70.45 28.28 70.45 15.39"/>
                <polygon class="storeroom-18" points="117.06 18.37 96.32 30.37 96.32 43.25 117.06 31.25 117.06 18.37"/>
                <path class="storeroom-19" d="M98.31,11.4l1.28,1.29L100.87,14v3l-1.28,1.29-1.28,1.29-2.22.74L93.87,21H88.74l-2.22-.74-2.22-.74L83,18.23l-1.28-1.29V14L83,12.69,84.3,11.4l2.22-.74,2.22-.74h5.13l2.22.74,2.22.74Zm-4.73,2.74-.72-.24-.72-.24H90.47l-.72.24-.73.24-.41.42-.42.42v1l.42.42.41.42.73.24.72.24h1.67l.72-.24.72-.24.42-.42.42-.42V15L94,14.56Z"/>
                <g>
                  <path class="storeroom-20" d="M98.81,11.11c4.16,2.4,4.16,6.3,0,8.7a16.59,16.59,0,0,1-15,0c-4.16-2.4-4.16-6.3,0-8.7A16.59,16.59,0,0,1,98.81,11.11Z"/>
                  <path class="storeroom-21" d="M83,10.68c-4.57,2.64-4.57,6.92,0,9.56s12,2.64,16.53,0,4.57-6.92,0-9.56S87.6,8,83,10.68Zm15.35,8.87a15.59,15.59,0,0,1-14.17,0c-3.91-2.26-3.91-5.92,0-8.18a15.59,15.59,0,0,1,14.17,0C102.3,13.63,102.3,17.29,98.39,19.55Z"/>
                  <g>
                    <path class="storeroom-22" d="M91.3,13.64a26.66,26.66,0,0,0,6.06-2.79,16.21,16.21,0,0,0-12.13,0A26.75,26.75,0,0,0,91.3,13.64Z"/>
                    <path class="storeroom-22" d="M91.3,17.28a26.75,26.75,0,0,0-6.07,2.79,16.21,16.21,0,0,0,12.13,0A26.66,26.66,0,0,0,91.3,17.28Z"/>
                    <path class="storeroom-22" d="M98.46,11.4l-4.62,3.39-2.54.67,2.54.67,4.62,3.39C102.28,17.26,102.28,13.66,98.46,11.4Z"/>
                    <path class="storeroom-22" d="M84.14,11.4c-3.83,2.26-3.83,5.86,0,8.12l4.61-3.39,2.55-.67-2.55-.67Z"/>
                  </g>
                  <path class="storeroom-23" d="M94.11,13.83c1.55.9,1.55,2.36,0,3.26a6.27,6.27,0,0,1-5.63,0c-1.55-.9-1.55-2.36,0-3.26A6.27,6.27,0,0,1,94.11,13.83Z"/>
                </g>
              </g>
              <g>
                <polygon class="storeroom-24" points="109.35 30.29 111.21 31.37 113 33.6 114.03 36.27 114.03 38.43 112.52 39.31 111.33 38.35 111.34 36.67 110.71 35.04 109.62 33.69 107.83 31.17 109.35 30.29"/>
                <polygon class="storeroom-24" points="107.83 31.17 109.69 32.25 111.48 34.48 112.52 37.15 112.52 39.31 111 38.43 111 36.75 110.37 35.12 109.28 33.77 107.83 32.92 107.83 31.17"/>
              </g>
              <g>
                <polygon class="storeroom-24" points="113.9 27.65 115.77 28.73 117.56 30.96 118.59 33.63 118.59 35.79 117.07 36.67 115.89 35.71 115.89 34.03 115.26 32.41 114.17 31.05 112.38 28.53 113.9 27.65"/>
                <polygon class="storeroom-24" points="112.38 28.53 114.25 29.61 116.04 31.84 117.07 34.51 117.07 36.67 115.55 35.79 115.55 34.11 114.92 32.49 113.84 31.13 112.38 30.29 112.38 28.53"/>
              </g>
            </g>
            <g>
              <g>
                <polygon class="storeroom-16" points="23.78 42.4 49.66 70.27 70.39 45.38 44.51 30.4 23.78 42.4"/>
                <polygon class="storeroom-17" points="23.78 42.4 49.66 57.38 49.66 70.27 23.78 55.29 23.78 42.4"/>
                <polygon class="storeroom-18" points="70.39 45.38 49.66 57.38 49.66 70.27 70.39 58.27 70.39 45.38"/>
                <path class="storeroom-25" d="M51.64,38.42l1.29,1.28L54.21,41v3l-1.28,1.28-1.29,1.29-2.22.74L47.2,48H42.07l-2.22-.74-2.22-.74-1.28-1.29L35.07,44V41l1.28-1.29,1.28-1.28,2.22-.75,2.22-.74H47.2l2.22.74,2.22.75Zm-4.72,2.73-.73-.24-.72-.24H43.8l-.72.24-.72.24-.42.42-.42.42v1l.42.41.42.42.72.24.72.24h1.67l.72-.24.73-.24.41-.42.42-.42V42l-.42-.42Z"/>
                <g>
                  <path class="storeroom-20" d="M52.15,38.13c4.15,2.4,4.15,6.29,0,8.69a16.61,16.61,0,0,1-15,0c-4.15-2.4-4.15-6.29,0-8.69A16.55,16.55,0,0,1,52.15,38.13Z"/>
                  <path class="storeroom-21" d="M36.37,37.69c-4.57,2.64-4.57,6.92,0,9.56s12,2.64,16.53,0,4.57-6.92,0-9.56S40.93,35.05,36.37,37.69Zm15.35,8.88a15.65,15.65,0,0,1-14.17,0c-3.91-2.27-3.91-5.93,0-8.19a15.65,15.65,0,0,1,14.17,0C55.63,40.64,55.63,44.3,51.72,46.57Z"/>
                  <g>
                    <path class="storeroom-22" d="M44.63,40.65a26.66,26.66,0,0,0,6.06-2.79,16.18,16.18,0,0,0-12.12,0A26.66,26.66,0,0,0,44.63,40.65Z"/>
                    <path class="storeroom-22" d="M44.63,44.29a26.66,26.66,0,0,0-6.06,2.79,16.09,16.09,0,0,0,12.12,0A26.66,26.66,0,0,0,44.63,44.29Z"/>
                    <path class="storeroom-22" d="M51.79,38.42,47.18,41.8l-2.55.67,2.55.67,4.61,3.39C55.61,44.28,55.61,40.67,51.79,38.42Z"/>
                    <path class="storeroom-22" d="M37.47,38.42c-3.82,2.25-3.82,5.86,0,8.11l4.61-3.39,2.55-.67-2.55-.67Z"/>
                  </g>
                  <path class="storeroom-23" d="M47.44,40.85c1.56.89,1.56,2.35,0,3.25a6.19,6.19,0,0,1-5.62,0c-1.56-.9-1.56-2.36,0-3.25A6.19,6.19,0,0,1,47.44,40.85Z"/>
                </g>
              </g>
              <g>
                <polygon class="storeroom-24" points="62.68 57.3 64.55 58.38 66.33 60.61 67.37 63.28 67.37 65.44 65.85 66.32 64.67 65.36 64.67 63.68 64.04 62.05 62.95 60.7 61.16 58.18 62.68 57.3"/>
                <polygon class="storeroom-24" points="61.16 58.18 63.03 59.26 64.82 61.49 65.85 64.16 65.85 66.32 64.33 65.44 64.33 63.76 63.7 62.13 62.62 60.78 61.16 59.94 61.16 58.18"/>
              </g>
              <g>
                <polygon class="storeroom-24" points="67.23 54.66 69.1 55.74 70.89 57.98 71.92 60.65 71.92 62.81 70.4 63.68 69.22 62.73 69.22 61.04 68.59 59.42 67.51 58.06 65.71 55.54 67.23 54.66"/>
                <polygon class="storeroom-24" points="65.71 55.54 67.58 56.62 69.37 58.85 70.4 61.52 70.4 63.68 68.89 62.81 68.89 61.12 68.26 59.5 67.17 58.14 65.71 57.3 65.71 55.54"/>
              </g>
            </g>
            <polygon class="storeroom-16" points="60.39 67.9 83.73 90.76 156.4 39.35 133.06 25.83 60.39 67.9"/>
            <polygon class="storeroom-18" points="156.4 39.35 83.73 81.41 83.73 90.76 156.4 48.7 156.4 39.35"/>
            <polygon class="storeroom-17" points="60.39 67.9 83.73 81.41 83.73 90.76 60.39 77.25 60.39 67.9"/>
          </g>
        </g>
        <polygon class="storeroom-26" points="49.66 70.27 34.62 70.27 9.74 55.54 23.78 47.32 23.78 55.29 49.66 70.27"/>
        <polygon class="storeroom-26" points="96.32 43.25 81.29 43.25 56.41 28.53 70.45 20.31 70.45 28.28 96.32 43.25"/>
        <polygon class="storeroom-26" points="83.73 90.74 73.47 90.59 49.41 76.67 60.39 70.53 60.39 77.25 83.73 90.74"/>
      </g>
      <g>
        <polygon class="storeroom-27" points="5.55 168.93 21.69 178.25 21.69 134.13 5.55 124.82 5.55 168.93"/>
        <polygon class="storeroom-28" points="31.34 128.57 31.34 172.69 21.69 178.25 21.69 134.13 31.34 128.57"/>
        <polygon class="storeroom-29" points="31.34 128.57 15.19 119.25 5.55 124.82 21.69 134.13 31.34 128.57"/>
        <polygon class="storeroom-30" points="19 136.17 19 173.09 8.24 166.89 8.24 129.97 19 136.17"/>
        <g>
          <polygon class="storeroom-30" points="23.04 138.4 29.99 134.39 29.99 135.43 23.04 139.44 23.04 138.4"/>
          <polygon class="storeroom-30" points="23.04 141.54 29.99 137.54 29.99 138.58 23.04 142.58 23.04 141.54"/>
          <polygon class="storeroom-30" points="23.04 147.84 29.99 143.83 29.99 144.87 23.04 148.88 23.04 147.84"/>
          <polygon class="storeroom-30" points="23.04 150.99 29.99 146.98 29.99 148.02 23.04 152.03 23.04 150.99"/>
          <polygon class="storeroom-30" points="23.04 144.69 29.99 140.69 29.99 141.72 23.04 145.73 23.04 144.69"/>
        </g>
        <polygon class="storeroom-28" points="13.39 136.58 16.36 145.2 9.9 141.27 13.39 136.58"/>
      </g>
      <polygon class="storeroom-31" points="104.35 115.32 104.35 189.33 105.99 190.27 105.99 114.38 104.35 115.32"/>
    </g>
  </g>
</svg>
