<svg xmlns="http://www.w3.org/2000/svg" viewBox="0 0 64 64">
  <defs>
    <style>
      .plane-1 {
        fill: #fff;
      }
    </style>
  </defs>
  <g id="FG">
    <path class="plane-1" d="M28.34,58.18H19.42l6.37-20.36H15.5l-3.81,5.09H4.22L7.33,32,4.22,21.09h7.47l3.81,5.09H25.79L19.42,5.82h8.92L41.07,26.18H54a5.82,5.82,0,1,1,0,11.64H41.07Zm-3.48-4h1.26L38.85,33.82H54a1.82,1.82,0,1,0,0-3.64H38.85L26.12,9.82H24.86l6.37,20.36H13.5L9.69,25.09H9.52l2,6.91-2,6.91h.17l3.81-5.09H31.23Z"/>
  </g>
</svg>
