<?xml version="1.0" encoding="utf-8"?>
<!-- Generator: Adobe Illustrator 22.0.1, SVG Export Plug-In . SVG Version: 6.00 Build 0)  -->
<svg version="1.1" id="Layer_1" xmlns="http://www.w3.org/2000/svg" xmlns:xlink="http://www.w3.org/1999/xlink" x="0px" y="0px"
	 viewBox="0 0 400 100" style="enable-background:new 0 0 400 100;" xml:space="preserve">
<style type="text/css">
	.st0{fill:#F25022;}
	.st1{fill:#80BA01;}
	.st2{fill:#777777;}
	.st3{fill:#02A4EF;}
	.st4{fill:#FFB902;}
</style>
<g>
	<path class="st0" d="M10,9.4h38.6c0,12.9,0,25.7,0,38.6c-12.9,0-25.7,0-38.6,0V9.4L10,9.4z"/>
	<path class="st1" d="M52.5,9.4h38.6c0,12.9,0,25.7,0,38.6c-12.9,0-25.7,0-38.6,0C52.5,35.2,52.5,22.3,52.5,9.4L52.5,9.4z"/>
	<path class="st2" d="M358.1,24.1c3.6-2.3,8.2-2.5,12.2-1.4c0,2.4,0,4.8,0,7.2c-1.9-0.8-4.1-1.4-6.2-0.6c-1.6,0.6-2.5,2.3-2.8,3.9
		c-0.3,2.1-0.1,4.2-0.2,6.3c4.1,0,8.1,0,12.2,0c0-2.6,0-5.3,0-7.9c2.8-0.8,5.5-1.7,8.3-2.5c0,3.5,0,7,0,10.5c2.8,0,5.5,0,8.3,0v6.8
		c-2.8-0.1-5.5,0-8.3,0c0,3.9,0,7.8,0,11.7c0,2.2-0.1,4.3,0.1,6.5c0.2,1.3,0.6,2.7,1.8,3.3c2,1.1,4.5,0.6,6.3-0.6v6.8
		c-2.4,1-5.1,1.4-7.6,1.2c-2.4-0.2-5-1.1-6.6-3c-1.8-2.2-2.3-5.2-2.4-8c0-6,0-12,0-17.9c-4.1,0-8.1,0-12.2,0c0,9.4,0,18.8,0,28.2
		c-2.8,0-5.6,0-8.3,0c0-9.4,0-18.8,0-28.2c-1.9,0-3.9,0-5.8,0c0-2.2,0-4.5,0-6.7c1.9,0,3.9,0,5.8,0c0.1-3-0.3-6,0.6-8.9
		C354.1,28,355.8,25.6,358.1,24.1L358.1,24.1z"/>
	<path class="st2" d="M179.4,24.6c1.7-0.3,3.5,0.3,4.6,1.6c1.3,1.4,1.5,3.7,0.6,5.4c-1.1,1.9-3.5,2.8-5.6,2.3
		c-2.2-0.4-4-2.4-3.9-4.7C175.1,27,177,24.9,179.4,24.6L179.4,24.6z"/>
	<path class="st2" d="M115.4,25.7c4,0,8.1,0,12.1,0c3.8,9.6,7.6,19.2,11.4,28.8c1,2.4,1.9,4.8,2.9,7.2c4.9-12,9.8-24,14.6-36
		c3.9-0.1,7.8,0,11.7,0c0,16.2,0,32.5,0,48.7c-2.8,0-5.6,0-8.4,0c0-12,0-23.9,0-35.9c0-0.5,0-1.1-0.1-1.6c-0.2,0.3-0.3,0.5-0.4,0.8
		c-4.8,12.3-9.7,24.5-14.5,36.8c-2,0.1-4,0-6,0c-5-12.3-9.9-24.5-14.8-36.8c-0.1-0.3-0.3-0.5-0.4-0.7c-0.1,5.2,0,10.5,0,15.7
		c0,7.3,0,14.5,0,21.8c-2.7,0-5.3,0-7.9,0C115.4,58.1,115.4,41.9,115.4,25.7L115.4,25.7z"/>
	<path class="st2" d="M202.3,39.4c4-1.1,8.4-1.1,12.4,0c0.8,0.2,1.6,0.6,2.4,1c0,2.7,0,5.3,0,8c-2.7-2.1-6.1-3.4-9.5-2.9
		c-2.7,0.2-5.3,1.7-6.9,3.9c-2.1,2.7-2.6,6.3-2.2,9.7c0.3,2.6,1.3,5.2,3.4,6.9c2.1,1.9,5.1,2.5,7.8,2.3c2.7-0.3,5.3-1.5,7.5-3.1
		c0,2.5,0,5,0,7.6c-3.4,2-7.5,2.6-11.4,2.4c-4-0.2-8-1.7-10.9-4.5c-3.1-3-4.9-7.4-5.1-11.7c-0.2-4.5,0.7-9.2,3.3-13
		C195.2,42.8,198.6,40.5,202.3,39.4L202.3,39.4z"/>
	<path class="st2" d="M293.5,38.9c3.9-0.7,7.9-0.2,11.6,1.2c0,2.6,0,5.1,0,7.7c-2.6-1.8-5.7-2.7-8.8-2.6c-1.6,0.1-3.3,0.7-4,2.2
		c-0.6,1.5-0.2,3.4,1.2,4.3c2.4,1.6,5.2,2.3,7.6,3.7c1.9,1.1,3.8,2.5,4.8,4.5c1.8,3.8,1.1,8.9-2.2,11.7c-3.1,2.9-7.5,3.7-11.6,3.5
		c-2.9-0.2-5.8-0.8-8.5-1.9c0-2.7,0-5.4,0-8.1c2.2,1.6,4.8,2.8,7.6,3.3c1.9,0.3,4,0.3,5.8-0.5c1.7-0.8,2-3.3,1-4.7
		c-0.9-1.1-2.3-1.8-3.6-2.4c-2.5-1.1-5-2-7.2-3.7c-1.5-1.2-2.7-2.9-3.1-4.7c-0.7-2.8-0.5-5.9,1.2-8.3
		C287.1,41.2,290.3,39.5,293.5,38.9L293.5,38.9z"/>
	<path class="st2" d="M235.8,40c2.3-1.4,5.2-1.5,7.7-0.7c0,2.8,0,5.6,0,8.4c-1.6-1.1-3.7-1.5-5.6-1.3c-2.4,0.3-4.2,2.1-5.2,4.2
		c-1.1,2.2-1.3,4.7-1.2,7.1c0,5.6,0,11.1,0,16.7c-2.7,0-5.5,0-8.2,0c0-11.6,0-23.3,0-34.9c2.7,0,5.5,0,8.2,0c0,2,0,4,0,6
		C232.4,43.3,233.7,41.2,235.8,40L235.8,40z"/>
	<path class="st2" d="M175.9,39.5c2.8,0,5.5,0,8.3,0c0,11.6,0,23.2,0,34.9c-2.8,0-5.5,0-8.3,0C175.9,62.7,175.9,51.1,175.9,39.5
		L175.9,39.5z"/>
	<path class="st2" d="M278.1,47.6c-1.4-3.2-4.1-5.9-7.3-7.4c-3.7-1.7-7.9-1.9-12-1.4c-4.2,0.5-8.3,2.5-11,5.9
		c-2.4,3-3.6,6.8-3.9,10.7c-0.3,4.5,0.4,9.3,3.1,13c2.3,3.2,5.8,5.5,9.6,6.3c3.2,0.7,6.6,0.7,9.8,0c3.8-0.8,7.3-2.8,9.6-5.9
		c2.3-2.9,3.4-6.5,3.7-10.2C280.1,54.9,279.7,51,278.1,47.6z M270.1,63.6c-0.8,1.8-2.3,3.3-4.1,4c-2.2,0.8-4.6,0.9-6.8,0.3
		c-2.3-0.6-4.2-2.2-5.2-4.3c-1.3-2.7-1.5-5.8-1.3-8.7c0.3-2.7,1.2-5.4,3.2-7.3c1.5-1.4,3.5-2.1,5.5-2.2c2.5-0.2,5.2,0.5,7,2.4
		c1.9,1.9,2.7,4.6,2.9,7.3C271.4,58,271.3,61,270.1,63.6z"/>
	<path class="st2" d="M345,48.6c-1.3-3.5-3.9-6.5-7.2-8.1c-3.8-1.9-8.2-2.2-12.4-1.7c-3.4,0.4-6.7,1.7-9.2,4
		c-3.1,2.7-5,6.7-5.5,10.7c-0.5,4.1-0.3,8.3,1.3,12.1c1.6,3.7,4.7,6.7,8.5,8.2c3.7,1.5,7.8,1.6,11.8,1c4-0.7,7.8-2.8,10.3-6
		c2.6-3.3,3.8-7.7,3.8-11.9C346.4,54.1,346,51.3,345,48.6z M337.5,60.4c-0.3,1.8-1,3.7-2.2,5.1c-1.2,1.5-3,2.4-4.9,2.6
		c-2,0.3-4.1,0.2-6-0.6c-2-0.9-3.6-2.6-4.4-4.6c-1-2.4-1.2-5-1-7.6c0.2-2.5,0.9-5,2.5-6.9c1.5-1.8,3.8-2.8,6.1-2.9
		c2.4-0.2,4.9,0.4,6.7,2c1.7,1.4,2.6,3.5,3,5.6C337.9,55.4,337.9,58,337.5,60.4z"/>
	<path class="st3" d="M10,52c12.9,0,25.7,0,38.6,0c0,12.9,0,25.7,0,38.6H10V52L10,52z"/>
	<path class="st4" d="M52.5,52c12.9,0,25.7,0,38.6,0c0,12.9,0,25.7,0,38.6H52.5C52.5,77.7,52.5,64.8,52.5,52L52.5,52z"/>
</g>
</svg>
