<svg width="241" height="107" viewBox="0 0 241 107" fill="none" xmlns="http://www.w3.org/2000/svg">
<g clip-path="url(#clip0)">
<path d="M39.3445 79.2859C38.4057 82.8077 37.1572 86.2393 35.6136 89.5405C34.1308 92.784 32.2509 95.8302 30.0173 98.6092C28.0151 101.126 25.5796 103.264 22.8257 104.922C20.2418 106.468 17.2456 107.182 14.2429 106.967C12.6235 106.82 11.0465 106.367 9.59497 105.633C8.14409 104.894 6.81632 103.934 5.6589 102.788C4.45138 101.59 3.42463 100.222 2.61102 98.7279C1.74936 97.1556 1.08346 95.4834 0.628239 93.7488C0.132271 91.222 -0.0750626 88.647 0.0102379 86.0733C0.0844379 83.052 0.381308 80.0404 0.898427 77.063C1.45137 73.8308 2.19239 70.6338 3.11769 67.4881C4.05693 64.2663 5.20264 61.1085 6.54769 58.0344C7.85182 55.0448 9.38673 52.1616 11.1385 49.4109C12.739 46.8695 14.6159 44.5135 16.7348 42.3862C18.633 40.4746 20.8201 38.8745 23.2157 37.6445C25.4798 36.49 27.9856 35.8911 30.5264 35.897C31.8757 35.8725 33.2216 36.0423 34.5226 36.4014C35.5443 36.6846 36.4996 37.1679 37.3334 37.8235C38.0718 38.4224 38.6768 39.1693 39.1098 40.0162C39.5546 40.9011 39.8543 41.8518 39.9974 42.8321C40.1567 43.9616 40.1769 45.1064 40.0576 46.2408C39.9293 47.5021 39.7019 48.7513 39.3776 49.9768C39.0328 51.2858 38.6077 52.5723 38.1049 53.829C37.5914 55.1145 37.0586 56.3496 36.5066 57.5342C36.3651 57.8072 36.1966 58.0652 36.0035 58.3043C35.767 58.5994 35.4983 58.8672 35.2026 59.1027C34.8699 59.3706 34.5013 59.5903 34.1074 59.7553C33.6669 59.9381 33.1936 60.0288 32.7168 60.0216C32.1232 59.9737 31.5424 59.8235 31 59.5775C29.9854 59.1525 28.9969 58.6674 28.0399 58.1247C28.8236 57.3412 29.5096 56.4655 30.0829 55.5168C30.8422 54.3163 31.5242 53.0684 32.1246 51.7809C32.7436 50.468 33.2671 49.1121 33.691 47.7237C34.0678 46.5619 34.2965 45.3571 34.3716 44.1378C34.4534 43.5677 34.4534 42.9888 34.3716 42.4187C34.3373 42.1915 34.2422 41.9779 34.0964 41.8005C33.9506 41.6231 33.7596 41.4886 33.5436 41.4112C32.9348 41.1834 32.2968 41.0436 31.6487 40.996C29.9405 41.2309 28.3421 41.9743 27.0609 43.1297C25.4166 44.5314 23.9549 46.1346 22.7102 47.9015C21.2511 49.9455 19.9455 52.0952 18.8042 54.3328C17.5802 56.7029 16.4851 59.0931 15.5186 61.5034C14.5522 63.9137 13.7138 66.2352 13.0033 68.4679C12.3873 70.3454 11.8733 72.255 11.4634 74.1881C11.0687 75.9657 10.7237 77.8032 10.4284 79.7005C10.1244 81.6821 9.95632 83.6823 9.92534 85.687C9.79797 87.8057 9.89682 89.932 10.2202 92.0297C10.4734 94.0273 11.1284 95.9527 12.1458 97.6897C12.5044 98.3569 13.0266 98.9219 13.6632 99.3316C14.2999 99.7412 15.0301 99.982 15.7852 100.031C17.3324 100.154 18.8864 99.9 20.314 99.2901C21.8038 98.645 23.1745 97.7534 24.3686 96.6526C25.6861 95.4447 26.8758 94.1042 27.919 92.6521C29.0392 91.1056 30.0481 89.4812 30.938 87.7912C31.8446 86.0727 32.6634 84.3439 33.3943 82.6049C34.1253 80.8658 34.7471 79.2061 35.2598 77.6258C35.3801 77.3884 35.6762 77.2994 36.148 77.3589C36.6579 77.4287 37.1558 77.5684 37.6277 77.774C38.1072 77.9709 38.548 78.2517 38.9293 78.6032C39.2843 78.9394 39.4026 79.2459 39.2843 79.5227L39.3445 79.2859Z" fill="white"/>
<path d="M51.2412 62.4518C52.8691 62.7311 54.3581 63.5444 55.4739 64.7639C56.5872 65.9708 57.4609 67.379 58.0482 68.9132C59.2619 70.2452 60.1357 71.8516 60.5948 73.5952C60.673 73.9121 60.7418 74.2285 60.8012 74.5442C60.8606 74.86 60.9296 75.2354 61.0082 75.6704C61.285 77.3848 61.3456 79.1273 61.1887 80.8568C61.036 82.5872 60.6985 84.2962 60.182 85.9546C59.675 87.5768 59.0099 89.1453 58.1962 90.6372C57.4409 92.045 56.4948 93.3416 55.3848 94.49C54.3726 95.5375 53.193 96.4087 51.8947 97.0678C50.646 97.6968 49.2667 98.022 47.8689 98.0169C45.265 97.9627 42.7502 97.0572 40.7081 95.4384C38.4976 93.7593 36.8007 91.2004 35.6172 87.7617C35.2866 86.7985 35.047 85.8063 34.9017 84.7982C34.6255 83.0621 34.6052 81.2948 34.8416 79.5528C35.3201 75.9475 36.6395 72.5056 38.6928 69.5055C39.6712 68.0559 40.8458 66.7493 42.183 65.6231C43.4438 64.5608 44.8746 63.7191 46.4151 63.1333C47.9552 62.5577 49.6021 62.3252 51.2412 62.4518ZM52.1883 78.1006C51.7968 77.9489 51.4788 77.6516 51.3007 77.2709C51.0509 76.8061 50.8428 76.3199 50.6791 75.8181C50.4966 75.2675 50.3579 74.7034 50.2645 74.1309C50.1664 73.5379 50.096 73.0246 50.0581 72.5901C50.0185 72.0717 50.1102 71.5517 50.3247 71.0782C50.5242 70.6124 50.7827 70.1742 51.0937 69.7743C51.3735 69.4152 51.691 69.0873 52.0409 68.7963C52.2932 68.5805 52.56 68.3824 52.8394 68.2034C52.5547 68.1038 52.2528 68.0628 51.9518 68.0829C50.994 68.2114 50.0807 68.5671 49.2879 69.1205C48.3274 69.7457 47.4688 70.5154 46.7424 71.4024C46.008 72.4311 45.3828 73.5338 44.877 74.6925C44.3413 75.9035 43.9249 77.1641 43.6338 78.4561C43.3411 79.7328 43.1528 81.0312 43.0705 82.3385C42.9875 83.5368 43.0481 84.7406 43.2511 85.9244C43.3909 87.2762 43.8693 88.5707 44.6417 89.6881C44.9972 90.1835 45.4633 90.5889 46.0029 90.8719C46.5425 91.155 47.1407 91.308 47.7498 91.3187C48.4826 91.3455 49.2123 91.2108 49.8874 90.924C50.5625 90.6373 51.1664 90.2055 51.6564 89.6592C52.9078 88.3722 53.9113 86.865 54.6164 85.2134C55.4212 83.379 55.9786 81.4454 56.2736 79.4636C56.5877 77.6212 56.6081 75.7405 56.3338 73.8917V73.5952C55.983 73.6092 55.6482 73.7456 55.3872 73.9808C55.0571 74.2521 54.759 74.5604 54.4991 74.8998C54.2297 75.2424 54.0103 75.6216 53.8474 76.026C53.7018 76.3635 53.6215 76.7256 53.6109 77.0931L52.1883 78.1006Z" fill="white"/>
<path d="M95.5778 85.1543C95.143 86.1823 94.5508 87.4276 93.8015 88.8903C93.0351 90.3793 92.1539 91.8061 91.1658 93.1577C90.2222 94.4755 89.1076 95.6615 87.8513 96.6846C86.787 97.6002 85.4362 98.114 84.0332 98.1368C83.1755 98.1316 82.3249 97.9813 81.5173 97.6921C80.6606 97.3912 79.8749 96.9172 79.2089 96.2995C78.4678 95.5986 77.8656 94.7639 77.4338 93.8392C76.9051 92.7088 76.5746 91.4959 76.4565 90.2533C76.3386 89.0923 76.3091 87.9239 76.368 86.7584C76.427 85.6131 76.5454 84.4079 76.7231 83.1429C76.9008 81.8779 77.1473 80.5049 77.4626 79.0238C77.7784 77.5418 78.1533 75.8723 78.5873 74.0152C78.7732 73.2837 78.9119 72.541 79.0025 71.7917C79.0816 71.2321 79.0816 70.6641 79.0025 70.1045L76.9897 72.5347C75.8253 73.8434 74.7381 75.219 73.7336 76.6544C72.7868 78.0175 71.8396 79.5289 70.8921 81.1888C70.3347 83.6695 69.9395 86.1839 69.709 88.7161C69.4716 91.2983 69.4515 93.8959 69.6489 96.4815C69.6489 96.9153 69.3039 97.1128 68.6138 97.0738C67.8191 97.0096 67.0396 96.8196 66.3043 96.511C65.4602 96.1779 64.6564 95.7504 63.9081 95.2366C63.3001 94.9 62.8363 94.3518 62.6047 93.6958C62.4108 91.9742 62.3318 90.2416 62.3682 88.5095C62.4084 86.8299 62.5169 85.1702 62.6938 83.5304C62.8707 81.8906 63.0978 80.2703 63.375 78.6695C63.6514 77.069 63.9474 75.4587 64.2632 73.8386C64.5797 71.9417 64.8952 70.0938 65.2097 68.295C65.5242 66.4961 65.7808 64.7673 65.9794 63.1086C66.2485 62.9876 66.5394 62.9226 66.8344 62.9174C67.1294 62.9122 67.4223 62.967 67.6956 63.0785C68.5065 63.3235 69.2825 63.6721 70.0045 64.1155C70.8188 64.6094 71.5734 65.1957 72.2533 65.863C72.9109 66.4828 73.4522 67.2157 73.8515 68.0268C75.0209 66.6527 76.3643 65.4373 77.8478 64.4114C79.2188 63.4485 80.8244 62.8749 82.4945 62.7513C83.1855 62.8028 83.8452 63.0608 84.3882 63.4919C85.1237 64.0081 85.7909 64.6155 86.374 65.2996C86.9778 65.9995 87.4856 66.7771 87.8838 67.6116C88.245 68.2834 88.409 69.0438 88.3568 69.805C87.962 71.82 87.5677 73.7067 87.1737 75.465C86.7798 77.2233 86.4244 78.7349 86.1074 79.9999C85.8306 81.1063 85.5839 82.1238 85.3673 83.0526C85.1506 83.9813 84.9731 84.9001 84.8347 85.8087C84.6945 86.7316 84.6057 87.6616 84.5688 88.5944C84.5327 89.6234 84.5729 90.6536 84.6891 91.6766C84.6891 91.5561 84.7866 91.4392 84.984 91.3211H84.9238C86.1892 90.4829 87.3258 89.4644 88.2978 88.298C89.7626 86.5488 90.9591 84.5911 91.8482 82.4892C92.1635 81.8577 92.4497 81.245 92.7069 80.6513C92.964 80.0576 93.2105 79.4648 93.4464 78.8731L94.0379 77.1546C94.1583 76.9569 94.4321 76.9081 94.8672 77.0064C95.3468 77.1241 95.806 77.3139 96.2289 77.5692C96.6817 77.83 97.091 78.1599 97.4421 78.5471C97.7766 78.9231 97.8862 79.2497 97.7676 79.5257V79.4052L95.5778 85.0965V85.1543Z" fill="white"/>
<path d="M94.2148 65.4749C93.9335 65.5929 93.6316 65.6537 93.3266 65.6537C93.0216 65.6537 92.7197 65.5929 92.4384 65.4749C91.9535 65.265 91.5499 64.9029 91.2884 64.4433C91.027 63.9837 90.9218 63.4514 90.9888 62.9266C91.0317 62.6296 91.1355 62.3446 91.2935 62.0895C91.4515 61.8345 91.6604 61.6148 91.9071 61.4443C94.3353 59.5059 96.9527 57.818 99.7196 56.4062C100.391 53.838 100.924 51.4679 101.318 49.2958C101.712 47.1238 101.989 45.0885 102.147 43.19C102.659 42.875 103.399 42.8851 104.367 43.2201C105.384 43.5845 106.334 44.1151 107.178 44.7904C108.079 45.495 108.876 46.3233 109.546 47.2507C110.163 48.0098 110.479 48.9697 110.434 49.9472C110.354 50.2642 110.265 50.6792 110.167 51.1921C110.07 51.7051 109.922 52.2979 109.723 52.9703C112.2 52.4896 114.718 52.2515 117.242 52.2593C117.635 52.2593 118.158 52.2691 118.81 52.2888C119.462 52.3085 119.985 52.3382 120.378 52.378C120.657 52.9833 120.809 53.6397 120.823 54.3062C120.846 54.9687 120.756 55.6302 120.556 56.2622C120.381 56.8331 120.1 57.366 119.728 57.8331C119.585 58.0306 119.399 58.1923 119.183 58.3053C118.967 58.4184 118.728 58.4797 118.485 58.4845C118.049 58.4443 117.615 58.4148 117.181 58.3959C116.748 58.377 116.314 58.3672 115.88 58.3664C114.535 58.3645 113.19 58.4436 111.855 58.6032C110.52 58.7671 109.196 59.0047 107.888 59.3148L106.291 64.709L106.053 65.4791C105.817 66.2307 105.501 67.2583 105.107 68.5619C104.712 69.8655 104.288 71.3153 103.834 72.9113C103.38 74.5117 102.926 76.1913 102.472 77.95C102.018 79.7087 101.624 81.4079 101.289 83.0477C100.953 84.6879 100.706 86.1992 100.549 87.5815C100.388 88.6824 100.388 89.8008 100.549 90.9017V91.3753H100.963C102.019 90.9588 102.962 90.2981 103.715 89.4471C104.551 88.5209 105.286 87.5073 105.906 86.424C106.576 85.2591 107.169 84.0513 107.681 82.8085C108.215 81.525 108.718 80.2703 109.191 79.0442H109.131C109.25 78.6869 109.399 78.34 109.575 78.0072C109.744 77.6911 109.892 77.3644 110.019 77.0292C110.098 76.7924 110.354 76.7334 110.788 76.8515C111.266 76.989 111.724 77.1883 112.15 77.4444C112.603 77.7049 113.012 78.0346 113.363 78.4218C113.698 78.7986 113.827 79.1246 113.748 79.3998L112.683 82.0674C111.775 84.3198 110.758 86.6019 109.634 88.9138C108.59 91.1014 107.267 93.1438 105.697 94.9895C105.367 95.3591 105.011 95.7056 104.633 96.0265C104.174 96.4195 103.679 96.7668 103.153 97.0636C102.57 97.3928 101.955 97.661 101.317 97.8638C100.609 98.0868 99.8696 98.197 99.1269 98.1904C98.3079 98.1806 97.5028 97.9767 96.7776 97.5955C96.0523 97.2143 95.4275 96.6665 94.9544 95.997C93.8946 94.4816 93.2136 92.7336 92.9686 90.8999C92.8876 90.4392 92.8381 89.9735 92.8205 89.5061C92.8019 89.0132 92.791 88.5685 92.791 88.1732C92.7498 84.1213 93.2071 80.0798 94.1528 76.1399C95.1 72.1894 96.1456 68.3367 97.2898 64.5819L97.7044 63.396C97.1511 63.713 96.5985 64.039 96.0465 64.374C95.4945 64.709 94.9421 65.0547 94.3893 65.411L94.2148 65.4749Z" fill="white"/>
<path d="M125.292 62.4518C126.919 62.7313 128.408 63.5446 129.524 64.7639C130.637 65.9711 131.511 67.3792 132.099 68.9132C133.313 70.2454 134.186 71.8518 134.644 73.5952C134.722 73.9121 134.792 74.2279 134.851 74.5442C134.91 74.8606 134.979 75.236 135.059 75.6705C135.335 77.3849 135.394 79.1274 135.236 80.8568C135.084 82.5872 134.746 84.2962 134.23 85.9546C133.724 87.5768 133.06 89.1453 132.247 90.6371C131.492 92.0456 130.546 93.3422 129.435 94.49C128.423 95.5379 127.243 96.4092 125.945 97.0678C124.696 97.6967 123.317 98.0218 121.92 98.0168C119.316 97.9627 116.801 97.0572 114.759 95.4384C112.548 93.7593 110.851 91.2004 109.668 87.7617C109.34 86.7981 109.102 85.806 108.958 84.7982C108.681 83.0621 108.661 81.2948 108.898 79.5528C109.376 75.948 110.694 72.5063 112.745 69.5055C113.724 68.0564 114.899 66.7499 116.235 65.6232C117.497 64.5611 118.928 63.7194 120.468 63.1333C122.007 62.5579 123.654 62.3254 125.292 62.4518ZM126.238 78.1006C125.847 77.9489 125.528 77.6517 125.35 77.2709C125.101 76.8058 124.893 76.3196 124.729 75.8181C124.547 75.2674 124.409 74.7032 124.315 74.1309C124.216 73.5379 124.147 73.0244 124.108 72.5901C124.069 72.0718 124.161 71.552 124.374 71.0782C124.574 70.6125 124.833 70.1743 125.144 69.7743C125.424 69.4156 125.741 69.0878 126.09 68.7963C126.343 68.5803 126.61 68.3822 126.89 68.2034C126.605 68.1039 126.303 68.0629 126.002 68.0829C125.044 68.2117 124.131 68.5675 123.338 69.1205C122.377 69.7456 121.519 70.5153 120.792 71.4024C120.059 72.4317 119.434 73.5343 118.927 74.6925C118.393 75.9041 117.976 77.1644 117.684 78.4561C117.392 79.733 117.204 81.0313 117.122 82.3385C117.038 83.5366 117.097 84.7404 117.299 85.9244C117.439 87.2761 117.918 88.5706 118.69 89.6881C119.045 90.1835 119.512 90.5889 120.051 90.8719C120.591 91.155 121.189 91.308 121.798 91.3187C122.531 91.3455 123.261 91.2108 123.936 90.924C124.611 90.6372 125.215 90.2055 125.705 89.6592C126.956 88.3722 127.96 86.865 128.665 85.2134C129.469 83.379 130.027 81.4454 130.322 79.4636C130.636 77.6212 130.656 75.7405 130.382 73.8917V73.5952C130.031 73.6094 129.696 73.7458 129.435 73.9808C129.105 74.2525 128.807 74.5607 128.547 74.8998C128.278 75.2423 128.059 75.6215 127.897 76.026C127.751 76.3634 127.67 76.7256 127.659 77.0931L126.238 78.1006Z" fill="white"/>
<path d="M133.697 89.2446C133.457 87.6195 133.569 85.9621 134.023 84.3836C134.396 82.9366 135.165 81.6221 136.242 80.5874L137.189 78.4537C137.939 76.5568 138.708 74.6798 139.497 72.8227C140.287 70.9656 141.155 69.1677 142.102 67.4291L143.05 65.5316C143.561 64.465 144.153 63.3201 144.825 62.0969C145.728 60.5589 146.8 59.1274 148.022 57.8295C148.692 58.1464 149.511 58.5909 150.478 59.163C151.406 59.7084 152.279 60.3438 153.083 61.0599C153.777 61.6525 154.332 62.3911 154.708 63.2231C154.867 63.5633 154.907 63.9474 154.821 64.3131C154.735 64.6788 154.528 65.0047 154.234 65.2381L154.355 65.1779C153.937 65.6664 153.552 66.1812 153.201 66.7192C152.942 67.1569 152.714 67.6124 152.519 68.0823L151.987 69.2681C151.431 70.6663 151.121 72.1502 151.069 73.6542C151.009 75.1808 151.099 76.7096 151.336 78.2187C151.454 79.0479 151.612 79.8875 151.809 80.7375C152.007 81.5875 152.204 82.447 152.401 83.3159L153.112 86.8711C153.464 88.4785 153.504 90.1387 153.232 91.7615C153.006 93.1255 152.458 94.4158 151.634 95.5252C150.838 96.5577 149.787 97.3646 148.585 97.8662C147.265 98.4129 145.837 98.6464 144.412 98.5483C142.934 98.4629 141.482 98.122 140.12 97.5408C138.946 97.0325 137.866 96.3313 136.923 95.4661C136.049 94.6531 135.327 93.6894 134.793 92.6208C134.261 91.5566 133.892 90.4185 133.697 89.2446ZM143.405 78.2778C143.325 77.957 143.275 77.6293 143.256 77.2992C143.236 76.9648 143.207 76.6364 143.168 76.3212L141.806 79.6414L141.746 79.7017C142.043 80.2241 142.3 80.7679 142.516 81.3286C142.831 82.0999 143.117 82.9102 143.374 83.7594C143.619 84.5499 143.778 85.3647 143.848 86.1895C143.946 86.7729 143.831 87.3723 143.522 87.8768C143.355 87.5975 143.132 87.3558 142.867 87.167C142.602 86.9781 142.301 86.8462 141.983 86.7795C141.426 86.6759 140.85 86.7703 140.355 87.0464C139.856 87.3286 139.43 87.7245 139.113 88.2021C138.792 88.6364 138.654 89.179 138.728 89.714C138.787 89.9707 138.876 90.2195 138.994 90.4552C139.132 90.7508 139.28 91.0372 139.438 91.3144C139.848 91.9266 140.422 92.4098 141.096 92.7076C141.679 92.9777 142.296 93.167 142.93 93.2704C143.462 93.37 144.012 93.2641 144.469 92.9739C144.871 92.6888 145.189 92.2995 145.387 91.8477C145.616 91.3228 145.746 90.7603 145.772 90.1882C145.808 89.5142 145.768 88.8382 145.652 88.1732C145.534 87.4614 145.376 86.7303 145.178 85.9799C144.98 85.2295 144.783 84.459 144.586 83.6684C144.388 82.838 144.181 81.9687 143.964 81.0605C143.748 80.1522 143.561 79.2248 143.405 78.2784V78.2778Z" fill="white"/>
<path d="M171.462 62.4518C173.09 62.7313 174.578 63.5446 175.694 64.7639C176.807 65.9711 177.681 67.3792 178.27 68.9132C179.483 70.2456 180.356 71.8519 180.814 73.5952C180.893 73.9121 180.962 74.2279 181.021 74.5442C181.08 74.8606 181.149 75.236 181.229 75.6705C181.505 77.3849 181.565 79.1274 181.406 80.8568C181.254 82.5872 180.916 84.2963 180.4 85.9546C179.893 87.5768 179.228 89.1453 178.414 90.6372C177.659 92.0455 176.713 93.3421 175.602 94.49C174.59 95.5379 173.411 96.4092 172.112 97.0678C170.863 97.6966 169.484 98.0218 168.087 98.0169C165.483 97.9627 162.968 97.0572 160.926 95.4384C158.715 93.7593 157.018 91.2004 155.835 87.7617C155.507 86.7982 155.269 85.8061 155.125 84.7982C154.848 83.0622 154.828 81.2948 155.065 79.5528C155.543 75.948 156.861 72.5063 158.912 69.5055C159.891 68.0564 161.066 66.7499 162.403 65.6232C163.664 64.561 165.095 63.7192 166.635 63.1333C168.176 62.5575 169.823 62.3249 171.462 62.4518ZM172.409 78.1006C172.017 77.949 171.699 77.6517 171.52 77.2709C171.271 76.8057 171.063 76.3196 170.898 75.8181C170.717 75.2673 170.579 74.7032 170.485 74.1309C170.385 73.5379 170.316 73.0244 170.277 72.5901C170.238 72.0718 170.33 71.5521 170.543 71.0782C170.743 70.6126 171.002 70.1744 171.313 69.7743C171.593 69.4155 171.911 69.0876 172.26 68.7963C172.512 68.5803 172.78 68.3822 173.06 68.2034C172.775 68.1039 172.473 68.0629 172.171 68.0829C171.214 68.2117 170.3 68.5675 169.507 69.1205C168.547 69.7456 167.688 70.5153 166.962 71.4024C166.229 72.4317 165.603 73.5343 165.097 74.6925C164.564 75.9038 164.149 77.1638 163.858 78.4549C163.566 79.7318 163.378 81.0301 163.296 82.3373C163.212 83.5354 163.271 84.7392 163.473 85.9232C163.613 87.2749 164.091 88.5694 164.864 89.6869C165.219 90.1823 165.685 90.5877 166.225 90.8707C166.765 91.1538 167.363 91.3068 167.972 91.3175C168.705 91.3443 169.434 91.2096 170.109 90.9228C170.785 90.6361 171.388 90.2043 171.878 89.658C173.13 88.3712 174.134 86.864 174.838 85.2122C175.643 83.3778 176.201 81.4442 176.496 79.4624C176.809 77.6199 176.83 75.7393 176.556 73.8905V73.594C176.205 73.6082 175.87 73.7446 175.609 73.9796C175.279 74.2511 174.981 74.5594 174.721 74.8986C174.452 75.2409 174.233 75.6202 174.071 76.0248C173.924 76.362 173.842 76.7242 173.83 77.0919L172.409 78.1006Z" fill="white"/>
<path d="M241.002 54.7521C240.971 54.7869 240.928 54.81 240.882 54.8178C240.468 54.8185 240.054 54.8521 239.645 54.9185C238.498 54.569 237.317 54.2693 236.102 54.0194C235.969 54.0013 235.786 53.9483 235.653 53.9302C233.001 53.4046 230.318 53.0512 227.621 52.8721C212.174 49.6447 195.074 52.8806 190.086 53.9851C192.851 49.3079 198.701 40.9779 206.503 39.1744C220.029 36.0423 232.527 50.3961 241.002 54.7521Z" fill="white"/>
<path d="M240.882 54.8178C232.902 60.0783 221.927 74.8262 208.221 73.7446C197.549 72.9191 191.479 63.5611 189.265 59.3395C208.618 52.3894 226.104 52.8522 227.722 52.9402C227.805 52.9245 227.805 52.9245 227.855 52.9589C231.023 53.2343 233.605 53.6217 235.618 53.9796C235.752 53.9983 235.934 54.0507 236.067 54.0694C238.517 54.4358 240.114 54.8745 240.882 54.8178Z" fill="white"/>
<path d="M165.033 4.05049C165.013 4.09181 165.006 4.13883 165.015 4.18426C165.273 4.8724 165.45 5.35988 165.45 5.35988C166.222 6.25591 166.977 7.28811 167.682 8.28055C167.747 8.39805 167.862 8.5505 167.927 8.668C169.471 10.8704 170.869 13.1724 172.11 15.559C181.339 28.3986 185.24 45.3978 186.26 50.4082C189.422 46.004 194.643 37.3143 193.161 29.3561C190.636 15.7874 172.432 10.081 165.033 4.05049Z" fill="white"/>
<path d="M164.98 4.23367C163.405 13.673 154.316 29.7165 160.851 41.8023C165.904 51.2614 176.878 53.0264 181.698 53.3403C180.681 40.2739 177.421 27.4812 172.061 15.5247C172.011 15.4909 172.045 15.4409 171.995 15.4042C170.76 13.1174 169.407 10.896 167.943 8.74875C167.851 8.62609 167.769 8.49655 167.697 8.36129C166.307 6.24024 165.289 4.95676 164.98 4.23367Z" fill="white"/>
<path d="M216.912 0C216.878 0.0494109 216.878 0.0494109 216.794 0.0650778C216.587 0.58088 216.433 0.912897 216.433 0.912897C216.375 1.79224 216.264 2.66721 216.099 3.53288C216.08 3.66605 216.046 3.71365 216.028 3.84923C215.672 5.74996 215.213 7.62978 214.652 9.48027C212.837 20.655 206.239 31.2488 204.164 34.2803C208.028 33.6452 215.06 31.899 218.328 27.1284C223.892 18.8943 217.608 6.76147 216.912 0Z" fill="white"/>
<path d="M216.794 0.0650787C211.216 4.05351 198.537 7.54782 195.743 16.9546C193.561 24.2969 198.183 30.7589 200.437 33.3289C206.534 26.1966 211.36 18.0678 214.706 9.29769L214.74 9.24768C215.273 7.45523 215.715 5.63696 216.064 3.79982C216.06 3.68982 216.084 3.58065 216.135 3.48287C216.29 2.33209 216.511 1.19102 216.794 0.0650787Z" fill="white"/>
</g>
<defs>
<clipPath id="clip0">
<rect width="241" height="107" fill="white"/>
</clipPath>
</defs>
</svg>
