<svg width="20" height="18" viewBox="0 0 20 18" fill="none" xmlns="http://www.w3.org/2000/svg">
<path d="M20 13.2754C19.9923 13.2838 19.982 13.2894 19.9708 13.2913C19.8704 13.2914 19.7701 13.2996 19.671 13.3157C19.3929 13.2309 19.1065 13.1583 18.8119 13.0977C18.7795 13.0933 18.7352 13.0805 18.7029 13.0761C18.06 12.9486 17.4095 12.8629 16.7556 12.8195C13.0102 12.037 8.86393 12.8216 7.65454 13.0894C8.32497 11.9553 9.74344 9.93562 11.6351 9.49833C14.9148 8.7389 17.9451 12.2192 20 13.2754Z" fill="white"/>
<path d="M19.9708 13.2913C18.0359 14.5668 15.3749 18.1426 12.0516 17.8804C9.46419 17.6802 7.99247 15.4113 7.45569 14.3877C12.1479 12.7025 16.3877 12.8147 16.7799 12.8361C16.8002 12.8323 16.8002 12.8323 16.8123 12.8406C17.5804 12.9074 18.2064 13.0013 18.6945 13.0881C18.7269 13.0926 18.7712 13.1053 18.8035 13.1099C19.3973 13.1987 19.7845 13.3051 19.9708 13.2913Z" fill="white"/>
<path d="M1.58025 0.982086C1.57522 0.992106 1.57363 1.00351 1.57573 1.01452C1.63832 1.18137 1.68122 1.29957 1.68122 1.29957C1.86856 1.51682 2.05152 1.76709 2.22237 2.00772C2.23828 2.03621 2.26614 2.07317 2.2819 2.10166C2.65629 2.63566 2.99508 3.19381 3.29607 3.77248C5.53379 6.88562 6.47968 11.0073 6.72684 12.2221C7.49356 11.1543 8.75942 9.04734 8.40006 7.11777C7.78785 3.82786 3.37413 2.44427 1.58025 0.982086Z" fill="white"/>
<path d="M1.56747 1.02655C1.18549 3.31523 -1.01823 7.20519 0.566277 10.1356C1.79128 12.4291 4.45227 12.857 5.62095 12.9331C5.37434 9.76499 4.58382 6.66322 3.28417 3.7642C3.27206 3.75602 3.28037 3.7439 3.26826 3.73498C2.96869 3.18053 2.64074 2.64191 2.28575 2.12129C2.26353 2.09155 2.24363 2.06014 2.22622 2.02735C1.88904 1.51307 1.64217 1.20187 1.56747 1.02655Z" fill="white"/>
<path d="M14.159 0C14.1508 0.0119803 14.1508 0.0119803 14.1305 0.015779C14.0802 0.140842 14.043 0.221344 14.043 0.221344C14.0289 0.434553 14.0018 0.6467 13.9618 0.856594C13.9573 0.888883 13.949 0.900425 13.9446 0.933298C13.8584 1.39416 13.7471 1.84994 13.6111 2.29862C13.171 5.00808 11.5712 7.57669 11.068 8.31173C12.0048 8.15774 13.71 7.73433 14.5023 6.57765C15.8514 4.58117 14.3278 1.63941 14.159 0Z" fill="white"/>
<path d="M14.1305 0.0158081C12.7778 0.982855 9.70361 1.8301 9.02633 4.11089C8.49713 5.89114 9.61797 7.45794 10.1644 8.08106C11.6426 6.35175 12.8128 4.38081 13.624 2.25438L13.6323 2.24225C13.7615 1.80765 13.8686 1.36678 13.9533 0.921347C13.9524 0.894674 13.9583 0.868205 13.9705 0.844497C14.0082 0.565476 14.0616 0.288807 14.1305 0.0158081Z" fill="white"/>
</svg>
